<?xml version="1.0" encoding="utf-8"?>
<!-- Generator: Adobe Illustrator 23.0.1, SVG Export Plug-In . SVG Version: 6.00 Build 0)  -->
<svg version="1.1" id="Layer_1" xmlns="http://www.w3.org/2000/svg" xmlns:xlink="http://www.w3.org/1999/xlink" x="0px" y="0px"
	 viewBox="0 0 343.6 468.6" style="enable-background:new 0 0 343.6 468.6;" xml:space="preserve">
<style type="text/css">
	.st0{fill:#567359;}
	.st1{fill:#7F9A86;}
	.st2{fill:#EEFAFC;}
	.st3{fill:#FAFBFC;}
	.st4{fill:#8AA28A;}
	.st5{fill:#BECCD0;}
	.st6{fill:#EEBE38;}
	.st7{fill:#78937A;}
	.st8{fill:#BD891F;}
	.st9{fill:#F2D76A;}
	.st10{fill:#E8F3F8;}
	.st11{fill:#6A8569;}
	.st12{fill:#C8DCEC;}
	.st13{fill:#DDA325;}
	.st14{fill:#F7F7E3;}
	.st15{fill:#D7E7EE;}
</style>
<g>
	<path class="st0" d="M179,467.3c-0.3,0.5-0.6,0.9-0.9,1.4c-0.8,0-1.6,0-2.5,0c0-2.1-0.1-4.2-0.1-6.3c0.7-10.2,1.4-20.5,4.2-30.4
		c2.5-0.7,3.1-3.1,4.5-4.8c1.2-0.5,2.4-1,3.6-1.6c1.8,1.1,1.3,2.9,1.3,4.6c-4.9,0.9-6.8,3.9-7.4,8.8
		C180.7,448.3,179.4,457.7,179,467.3z"/>
	<path class="st1" d="M175.5,462.3c0,2.1,0.1,4.2,0.1,6.3c-1.6,0-3.3,0-4.9,0c-0.2-0.5-0.5-1-0.7-1.5c0.4-8.1,0.7-16.3,1.1-24.4
		c1,0,2,0,3.1,0C175.4,449.2,173.1,455.9,175.5,462.3z"/>
	<path class="st2" d="M224.8,255.1c-1.6-6-4.6-11.5-5.1-18c-0.5-6.7,4.9-7.4,8.4-9.6c3.4-2.2,6.9-0.1,9.6,2.9
		c1.6,1.7,2.1,4.5,5.1,5.4c0.7-7.7,6-9.8,12.5-10.1c0.8,1.4,2.5,1.4,3.7,2c0.4,1.3,0.9,3.7,2.4,1.4c4.4-6.7,10.2-4.6,14.8-1.9
		c4.7,2.8,3.5,8.4,2.6,13.2c-0.1,0.4-0.1,0.8-0.1,1.2c-2.8-2.3-6.4-4-9.5-3c-2.7,0.9,0.7,4.7-0.4,7.1c-0.3,0.7-0.8,1.4-1.1,2.1
		c-3.1,0.3-2.4,3.3-3.6,4.9c-2.5-0.1-4.3,0.5-2.5,3.4c1.4,2.2,0.5,4.2-0.1,6.3c-3.6-2.7-7.7-3.5-12-3.6c-0.3-1.3,0.4-2.9-1-4
		c-2.1,0.6-2.5,2.3-2.9,4.2c-0.5,2.8-2.2,1.5-3.7,0.9c-0.2-4.8-4.3-4.7-5.6-2.6c-1.8,2.9-5.2,5-5.4,8.9c-0.8,0-1.6-0.1-2.4-0.1
		c0-2.5,0.2-5.1-1.2-7.4c-0.4-0.4-0.8-0.8-1.2-1.2l0,0C225.9,256.5,225.7,255.6,224.8,255.1L224.8,255.1z"/>
	<path class="st3" d="M151.1,148.2c4.8-1.2,9.5-3.8,14.6-1.2c0,1.2,0.1,2.4,0.1,3.6c-0.8,0.6-0.6,0.9,0.2,1.2c0.7,2.8,1,5.7,0.6,8.6
		c-1.1,0.8-2.2,1.7-3.3,2.5c-0.9-3.9-3-1.5-4.5-0.8c-5.4,2.5-9.6,1.1-11.5-4.3c-0.7-2.1-2-2.3-3.7-2.3c0.9-2.5,4.4-3.5,4.4-6.9
		c-3.3,0.1-4.4,4.5-8,3.1c0.2-0.9,0.3-1.7,0.6-2.5c0.5-1.6,1.1-3.4-0.3-4.6c-2.1-1.8-2.3,1.5-3.7,1.7c-0.5,0.1-1-0.4-1.5-0.6
		c-1.4-3.8-4.9-4.5-8-1.6c-5.4,5-5.4,5-11.6,2.9c0.6-5-1-9.9-1.2-14.8c0.4-2.5,0.8-4.9,1.2-7.4c1.9-4.1,2.6-9.3,7.9-10.8
		c3.8-1,7.2,0.3,10.1,2.8c2.7,2.4,1.4,5.1,0.7,7.9c-0.5,1.9-1.8,3.7-1.3,5.8c0.6,0.7,1,0.2,1.3-0.3c6.2-8.1,8.4-7.8,16.8-1.7
		c6.2,4.5,5.6,8.6,2.3,14C152.3,144.4,151.9,146.4,151.1,148.2c-0.1,0.2-0.1,0.3-0.2,0.4C151,148.5,151,148.4,151.1,148.2z"/>
	<path class="st3" d="M56.6,133.5c2.8-3.3,5.6-6.5,9.5-8.6c2.9-1.5,5.2-1.3,7.1,2c1.3,2.4,3.4,4.4,7.5,6.6
		c-3.7-8.3-2.3-14.2,4.7-17.8c4.9-2.5,7.2,2.4,10.5,4.3c3.5,5.4,9,9.8,7.7,17.6c-0.3,2.1-0.3,5.8,3.3,7c-1.1,4.1-1,8.2,0.1,12.3
		c0,1.4,0,2.9-0.1,4.3c-1.6,0.2-3.3,0.4-4.9,0.6c-2,0.3-4.1,0.6-6.1,0.9c0-2.2,0.2-4.4,0.8-6.6c0.5-2-0.1-5.3-2.3-4.4
		c-4.1,1.7-3.9-1.5-5-3.2c-2.1-3-3.9-6.1-5.9-9.2c-0.5-0.8-1.1-1.8-2.4-1.4c-1.2,0.4-1.2,1.6-1,2.6c0.3,1.6,1,3.1,1.4,4.6
		c0.9,4.8,3,9.8-1.4,14.1c-2-1.2-4.1-2.4-6.1-3.7c-0.8-0.8-1.6-1.7-2.5-2.5C67,146.2,63.8,138.3,56.6,133.5z"/>
	<path class="st3" d="M294.7,239.1c5-0.4,6.4,5.1,11,6.4c3.8,1.1-1,5.3-1.2,8.3c-4.1,6.2-9.3,11.5-12.2,18.4
		c-0.1,0.2-0.2,0.3-0.2,0.5c0.1-0.1,0.2-0.3,0.3-0.4c8.8-2.4,11.6-9.9,14.7-17.2c5.7-2,9.4,0.5,11.1,7.3c-2.6-0.2-5,0.7-5.6,3.3
		c-0.5,2,0.7,3.8,3.1,4.1c-5.1,9.9-14.3,14.4-23.9,18.3c-1.1,0.4-2.4,0.4-3.1,1.6c-2,0.8-4.1,1.5-6.1,2.3c-1.4-1.3-2.9-2.6-4.4-3.9
		c7.5-5.3,7.5-5.4,5.8-10.4c-1.2-3.6-3.9-4.6-7.6-2.9l0,0c-0.4-1.6-0.8-3.3-1.2-4.9c4.4-5.5,10.3-9.4,10.6-18.1
		C285.8,247.5,288.3,240.8,294.7,239.1z M297.3,277.7c-3.9,2.7-7.3,3.5-7.7,7.4C292.1,283.5,295.8,283.1,297.3,277.7z M287.8,276.6
		c-0.3,0-0.5-0.1-0.8-0.1c0.1,0.1,0.2,0.3,0.3,0.3C287.5,276.8,287.6,276.6,287.8,276.6z"/>
	<path class="st3" d="M210.4,333.8c-4.9,0.3-9,3.2-14,3.7c-5.5,0.5-7-3.5-9.2-6.4c-2.1-2.8-1.7-6.6,1.1-9.4c2.4-2.3,4.9-4.6,7.3-7.5
		c-5.9,0.8-12.2,4.3-15.6-3.6c-1.3-3,0.2-5.4,1.8-7.8c10.9-3.6,22-0.8,33-1.2c0,2.4-5.2,7.6,3.2,5.2c2.1-0.6,2,1.8,0.6,3.3
		c-0.6,0-1.2-0.1-1.8,0.1c-3.3,1-7.4,2.3-6.4,6.4c1,4.4,4.7-0.2,7,0.9c0.4,0.6,0.7,0.6,1.1,0l0.1-0.1c1.7-0.1,3.2-1,3.8,2.1
		c1.1,5.6-4.1,6.4-6.2,9.4C213.5,329.7,211.8,331.5,210.4,333.8z"/>
	<path class="st4" d="M165.9,150.7c0-1.2-0.1-2.4-0.1-3.6c0.6-12.8-1.2-25.5-1.6-38.2c0.9-3.1-0.8-6.8,1.7-9.6c0,0-0.1-0.1-0.1-0.1
		c0.5,0.8,1.1,1.6,1.6,2.4c1.3,24.2,2.6,48.5,3.9,72.7c0.6,11,1.3,22,1.5,33c0.5,27.8,2.4,55.5,1.7,83.3c-2.9,0.5-2.2,2.8-2.4,4.7
		c-0.2,2.1,0.6,4.4-1.1,6.3c-2.3-9.4-1.4-19-2.1-28.5c-1.7-22.7-6.8-44.2-17.7-64.3c-0.6-1.2-0.8-2.7-1.1-4c1,0.1,2,0.2,3.1,0.3
		c6.6,13.6,12.7,27.5,15.6,42.5c-0.2,1.6,0.1,2.9,1.6,3.8c0.6-1.5,0.4-2.7-0.8-3.7c0.9-20.9-1-41.8-1.6-62.7c1.5-4.6-0.5-8.9-1-13.3
		c0-3.7-0.1-7.4-0.1-11.1c0.3-2.9,0.1-5.8-0.6-8.6C166,151.5,165.9,151.1,165.9,150.7z"/>
	<path class="st3" d="M308.1,187.5c-1.6,1.7-1.4,3.9-1,5.8c1.3,7-3,11.6-7,16.1c-3,3.3-8.9,1.3-10.4-3.4c-3.1-9.3-4.2-19-6.3-28.5
		c-0.2-2.8-0.5-5.5-0.7-8.3c0.4,0,0.7-0.1,1.1-0.1c1,0,2.2,0.2,3-0.2c5.3-2.7,9.4-0.9,12.8,3.4c2.2,2.9,3.4-0.5,5-0.8
		c2.1,3.4-2,8.8,3.6,11.1C308.1,184.3,308.1,185.9,308.1,187.5z"/>
	<path class="st3" d="M199.1,291.7c-0.9-3.2-4.2-2.9-6.4-4.1c-3.5-1.8-6.3-4.4-9.3-6.8c-4.6-3.6-0.7-7.5-0.5-10.9
		c0.2-3,3.6-5.3,7.4-5c8.9,0.8,17.1,3.6,23.8,9.6c3.8,3.5,8.7,7.3,2.4,13.1c-1.6,1.5-1.9,4.4-2.8,6.6c-0.8,0-1.5-0.1-2.3-0.1
		c-0.3-1.5-1.2-2.3-2.8-2C205.4,292,202.3,291.8,199.1,291.7z"/>
	<path class="st1" d="M207.6,423c-1.3,0.4-2.5,0.9-3.8,1.3c-1.5-4.2-4-1.5-6.3-1c-2.4,0.5-4.7,3.6-7.4,0.4
		c4.7-5.1,7.5-11.1,8.8-17.8c1.2-6.1,4-11.5,7-16.9c1.2-2.2,2.5-4.1,5.2-4.5c1.2,1.6-0.9,3.3,1.1,5.2c5.6-4.9,12.4-6.8,20-5.1
		c2.5,0.6,6.5,0.6,6.6,3.2c0.1,2.7-3.9,2.8-6.4,3.4c-3.2,0.7-6.4,1.1-9.6,2c-2.2,0.6-4.9,0.9-6.1,3.9c2.1,0.2,4.1,0.5,8,0.9
		c-9.1,5.2-14.3,11.9-18.5,19.4c2.2,1.9,4.2-0.2,6.1,0.3c0,0.3,0.1,0.6,0.1,0.9C210.9,420,207.6,419.6,207.6,423z"/>
	<path class="st3" d="M300.8,322.5c-0.5,3.6,3,4.3,4.6,6.4c3.1,3.7,4.5,12.4,2.3,16.5c-3.2,5.9-13.2,4.7-17.7-2.3
		c-1.4-2.1-2.3-4.3-5.2-4.5c-1.2-0.1-2.4-0.2-3.5-0.3c0-0.8-0.1-1.5-0.1-2.3c0-2.2-1.9-3.5-2.7-5.4c-1.2-2.7-0.8-4.7,2.5-4.3
		c6.7,0.7,7.6-4.1,8.8-8.7c9.7,1.5,9.7,1.5,9.8-6.3c1.1,0,2.3,0,3.4,0c0.8,0.1,1.6,0.1,2.4,0.2c2.8,0.3,6.5-1.1,6.4,4
		c-0.1,4.4-2.9,4.7-6.2,4.6C303.7,320.1,301.4,319.6,300.8,322.5z"/>
	<path class="st3" d="M205.2,20.6c-0.3,2.9,0.2,5,3.8,3.4c3.7-1.7,6.9-1.3,8.9,2.4c1.9,3.6,0,6.3-2.5,9.2c-7,8-16.7,11.3-26.1,15
		c-2.1,0.8-3.6,0.6-4.1-1.8c2.1-2,4.2-4,6.3-6.1c4.5-4.2,10.5-7.4,11.1-15.4c-4.5,1.8-5.7,5.6-8.2,8.1c-0.9,0.9-3.2,2.5-3.2,0.7
		c0-4.1-4.4-7.9-0.3-12.4c2-2.1,4.5-4.7,3.8-9.5c-1.9,2.8-3.2,4.8-4.6,6.7c-3.2,4.4-4.9,9.9-9.6,13.1c0-1.2,0-2.5,0-3.7
		c1.2-4.3,4.4-7.7,4.9-12.2c0,0,0,0,0,0c4.1-0.8,4.6-4,4.9-7.4c0.7-1.6,1.9-2.4,3.6-2.4c0.9,4.6,2.1,8.6,8.3,7.9
		C205.1,15.9,205,18.7,205.2,20.6z"/>
	<path class="st5" d="M282.6,169.2c0.2,2.8,0.5,5.5,0.7,8.3c-2.2,0.2-5.8-2.6-5.9,2.6c-1.7,8-7.6,13.8-10.7,21.1
		c-0.4-1.9-0.2-4-1.6-5.6c0.1-2.6,0.1-5.3,0.2-7.9c0.4-0.9,0.7-1.7,1.1-2.6c0.9-1.6,1.8-3.2,2.7-4.8c0.4-0.4,0.7-0.9,1.1-1.3
		c0,0,0,0,0,0c4-5.2,10.9-8.9,8.6-17.4c-0.7-2.5-0.2-5.3,1.5-7.5c3.8,0.2,6.6-0.9,6.9-5.2c7,0.1,13.5-1.4,19.2-5.7
		c5.1,0.4,8.4,5.6,13.9,5.2c1.7,2.7-0.1,4.9-1.2,7.2c0,1.2,0.1,2.5,0.1,3.7c-0.4,1.6-0.9,3.3-1.3,4.9c-2.6-0.3-4.3-2.2-6.3-3.7
		c-0.3-0.6-0.6-0.7-1-0.1c-0.8,0-1.6,0.1-2.5,0.1c-0.4-1.9,0.1-5.4-3.4-3.8c-2.1,1-3.9-0.7-4.9-0.2c-3.8,2-6.6-3.3-10.2-0.9
		c-6.1-0.2-7.4,3.7-7.4,8.7c0,1.2,0,2.4,0,3.6C282.6,168.4,282.6,168.8,282.6,169.2z"/>
	<path class="st6" d="M149.9,40.2c0.8-0.1,1.5-0.3,2.3-0.4c0.2,1.4,0,3,1.3,4c-0.3,0.7-0.6,1.5-1,2.2c-0.8,1.7-1.5,3.4,0,5.1
		c0.6,0.7,1.4,1.1,2,0.3c1.3-1.5,2.8-3,2.7-5.3c-0.1-2.2-1.3-3.3-3.5-3.4c-0.1-1.4-0.1-2.9-0.2-4.3c2.1-0.6,4.2-1.2,6.3-1.7
		c1.2,2.2,3,1.9,4.9,1c2.7,1.6,4.9,4.1,8.5,3.8c0.7,1.2-0.5,4,2.6,3c1.3,0.6,2.2,1.6,2.6,3c0.2,3.2-0.3,5.8-3.3,7.8
		c-1.9,1.3-3.7,3.1-4.5,5.5c-0.7,0.5-1.4,0.9-2.1,1.4l0,0c-2.8-2.8-7.3-2.9-9.9-6.1c-1.1-0.3-1.6-3.1-3-1.3
		c-1.2,1.6-0.6,3.3,1.8,3.6c-1.7,4.6-9.4,4.3-8.6,10.9c-1.9-1-3.8-2.2-5.7-3.1c-3.1-1.6-5.6-3.6-5.1-7.6c2.4-0.6,2.6-2.4,1.9-4.2
		c-0.8-2.2-1-4.3-0.8-6.5c0,0-0.1-0.6-0.1-0.6c1.6-0.8,2.2-3,4.4-2.9c0.8,1.7,1.9,3,4,3.1c0,1.4,0.5,3.4-1.5,3.2
		c-2.7-0.3-3.7,0.9-2.8,2.9c1.1,2.4-0.7,6.2,3,7.2c1.5,0.4,4.5,0.7,2.7-2.4c-1.3-2.4-1-4,0.4-6c1.5-2.2,0.1-3.8-1.8-5
		C148.3,45,150.6,43.2,149.9,40.2z"/>
	<path class="st3" d="M221.1,130c-3.6-3.3-8.7-4.5-11.7-8.7c-1.6-2.1-2.6-4.4-0.1-5.7c4.3-2.3,6.1-5.8,7.6-10.1c1-2.7,3.3-1.1,5,0
		c4.3,2.7,7.7,6.8,12.7,8.5c1.2,0.8,2.5,1.6,3.7,2.4c2.1,0.6,4.4,0.9,6.1,2.5c-2.6,6.2-9.2,3.1-13.2,5.5c4.5,2.6,9.8,0.1,14.5,1.8
		c0.4,0,0.8,0,1.2,0.1l0,0c0.9,3.6-5.2,3.4-3.8,7.2c-0.7,0-1.5,0-2.2,0c-0.7-2.4-1.9-2.9-3.8-1C231.5,133.1,226.7,128.7,221.1,130z"
		/>
	<path class="st3" d="M8.8,256.3c-0.4-4.5,2.8-6,6.1-7.4c0.6,1.4,1.9,1.9,3,2.8c3.5,3.1,7.4-0.4,10.4,0.5c3.2,1-0.3,7.8,4.9,9
		c0.6,6.5,1.9,12.6,6.8,17.4c-0.7,3.1,2.6,4.8,2.9,8c-2,0.2-4,0.3-5.9,0.4c-0.3-3.2-2.4-1-3.7-1.3c-0.7-0.4-1.6-1.2-2.1-1
		c-6.2,2.6-8.5-0.9-10.1-6c-2.7-8.6-5.5-17.1-8.3-25.8C10.9,254.1,10.9,256.4,8.8,256.3z"/>
	<path class="st0" d="M174.2,442.8c-1,0-2,0-3.1,0c0.1-15.3,0-30.5,0.3-45.8c0.1-3.9-1.1-5.8-5.1-5.5c-5.9,0.4-11.2-1.5-16.4-3.9
		c2.2-2.7,5.1,0.7,7.7-0.5c-3.9-4.4-10.3-2.7-13.9-6.7c0.9-0.1,2.6,0.3,2.6-0.8c0-1.8-2-2.7-3.3-3.1c-1.3-0.4-1.6,1.4-1.7,2.6
		c-2.9-0.4-5.8-0.8-8.8-1.2c0-2.9-2-4.2-4.2-5.3c-2-0.9-3.3-2.2-3-4.6c0.1-0.8,0.1-1.5,0.2-2.3c3.6-2,3.2-5.5,3.5-8.8
		c0.8,0.4,1.7,0.8,2.5,1.2c0.1,2.3-1.1,4.3-1.5,6.4c-0.8,4.2,2.1,7.4,5.5,8.6c3.2,1.1,1.4-2.7,2.1-4.2c4.8,2.1,9.4,4.4,13.5,7.8
		c-0.4,4.1,1.3,5.5,5.3,4.5c1.3-0.4,2.7-0.6,4.1-0.8c2.6,3.1,7.2,2.2,10.1,4.7c1.6-1.1,2.5,3.3,4.3,0.6c0,3,0.1,6.1,0.1,9.1
		c-2.2,1.1-2,2.1,0.1,2.9C174.8,412.7,174.5,427.7,174.2,442.8z"/>
	<path class="st7" d="M190.1,423.7c2.6,3.2,5,0.1,7.4-0.4c2.3-0.5,4.8-3.2,6.3,1c0,0-0.1,0.1-0.1,0.1c-3,1.8-8.5,2.6-4.4,7.8
		c1.7,2.1,4.1,4.6,7.6,4.6c3.5,0,4.5,2.1,4.3,5.2c-1.7-0.2-3.3-0.5-5-0.7c-0.1-1.1-0.7-2-1.9-1.8c-1.4,0.2-1.5,1.4-0.8,2.2
		c2.2,2.8,3.3,6.4,6.5,8.5c3.3,7.9,9.1,13,17.6,14.8c-0.3,0.6-0.7,1.3-1,1.9c-2.8,0-5.7,0-8.5,0.1c-9-3.3-13-11.5-18.5-19.9
		c-1.4,6.2-1.2,11.6-6.9,16.1c0.1-10.7-4.6-19.9-1.4-29.7c0.7-2.1-0.4-3-2.2-3.5c-0.1-1.6,0.5-3.4-1.3-4.6
		C188.6,424.9,189.3,424.3,190.1,423.7z"/>
	<path class="st3" d="M318,129.9c-2-1.9-3.2-3.6,1-5c-2.1,0-4.2,0-6.3,0c-1.9,0-3.1-0.7-3.2-2.8c-0.1-2.4,1.2-3,3.4-3.3
		c9.3-1.2,13.1,1.7,15.2,11c0.4,1.8,0.6,4.4,3.2,5.5c4.1,1.7,6.4,5.6,9.7,8.3c4.3,3.6,2.3,7.6,0.4,10.9c-2.1,3.8-5.6,2.2-8.6,0.6
		c-4.1-2.2-8.8-3.5-11.2-8.1c0-2.5,0.2-5.1-1.3-7.3c-0.4-0.8-0.9-1.6-1.3-2.4C320.3,134.6,322.4,131.7,318,129.9z"/>
	<path class="st2" d="M237,350.8c-4.2,9.7-7.5,13.6-20.4,7.4c-0.2-0.8-0.3-1.7-0.5-2.5c-0.7-10.1,1.9-18.9,9.8-25.7
		c0.8,0,1.7,0,2.5,0c1.7,0,2.9-0.9,3.7-2.4c4.3-0.4,7.8,0,7.6,5.7c0,1.3,0.7,2.7,1.1,4.1c0,1.2-0.1,2.5-0.1,3.7
		c-2.8-2.3-6.6-4.2-9.5-3c-2.8,1.1,1.1,4.6,0.4,7C230,350.3,233,351,237,350.8z"/>
	<path class="st3" d="M227.2,258.7c1.4,2.3,1.3,4.8,1.2,7.4c-2.9,1.9-5.8-1.8-9-0.6c0.7,1.5,1.7,1.7,2.7,1.8c0,1.6,0,3.2,0,4.8
		c-3.6-0.7-6-3.3-8.6-5.5c-2.5-2-4.7-3.4-8.7-2c-4.8,1.7-6.2-3.9-8.4-6.9c-1.8-2.4-1.7-4.6,1.9-5.4c1.8-0.4,1.6-2.1,2.2-3.3
		c2.3-4.6,7.9-5.7,12.4-3.3c4.5,2.5,6.6,7.9,11.9,9.2c0,0,0,0,0,0c0.4,0.8,0.8,1.7,1.3,2.5c0,0,0,0,0,0
		C226.4,257.9,226.8,258.3,227.2,258.7z"/>
	<path class="st8" d="M137.8,58.7c-0.5,4,1.9,6,5.1,7.6c1.9,1,3.8,2.1,5.7,3.1c2,2.8,2.3,0.1,3.2-1c1.9,1.1-0.6,7.5,4.3,4.4
		c2.7-1.7,4.4-2.2,7-0.8c0,0,0.7-0.8,0.6-0.9c-4.5-6.2,3.4-5.7,4.6-8.8c0,0,0,0,0,0c1-0.1,1.8-0.3,2.1-1.4c0.8-2.4,2.6-4.2,4.5-5.5
		c2.9-2,3.5-4.6,3.3-7.8c1.1-0.1,2.1,0,2.7,1.1c0,0.9-0.2,1.9,0.8,2.5c1.2,5.3,3.2,10.6-2.2,14.9c0.6,3.3-3.6,5-2.8,8.4
		c-1.4,1.9-3.3,0.9-5,0.9c-1.1,0.3-2.3,0.5-3.4,0.8c-1.7,0.5-3.4,0.9-5.1,1.4c-1.2,0-2.4,0-3.7,0.1c-1.4-0.5-2.6-0.5-3.7,0.6
		c-3.2-0.8-6.2-2.4-9.6-2.3c-2.3-1.4-4.7-2.5-7.4-2.8c-0.3-3.2-4.1-4.8-3.8-8.2c-0.1-0.9-0.1-1.7-0.2-2.6l0.5,0.1
		c1.1-1.1,0.6-2.7,1-3.9C137.2,56.3,137.4,58,137.8,58.7z"/>
	<path class="st9" d="M302.4,118.4c1.6,1.2,2.2,3,2.7,4.8c-0.2,0.1-0.3,0.3-0.5,0.5c-2.7,1.6-2.7,6.6-7.2,6.1
		c-0.2-0.9-0.5-1.7-0.7-2.6c-0.7,0.9-1.3,1.7-2,2.6c0,0-0.1,0-0.1,0c-3.3-0.2-5.7,6.4-9.7,1.3c-0.4,0-0.8,0-1.2,0.1
		c-3.5,2.1-8.7-1.1-11.3,3.8c-1.6-0.2-2.8-1-3.7-2.4c0-0.9,0-1.9,0-2.8c0-4.9,0.1-9.8,0.1-14.7c4-1.2,8.1-3.9,11.7,0.9
		c1.6,2.2,5.1-1.2,6.6,1.9c4.2-3.1,7.8-1.7,8.8,3.5c0.2,1.1-0.3,2.7,1.4,3c1.7,0.2,2.6-1.2,3-2.5c0.4-1.1,0.2-2.4,0.3-3.6
		C301.2,118.3,301.8,118.3,302.4,118.4z"/>
	<path class="st3" d="M132.7,213.3c1.4,2,3.1,3.9,4.1,6c2.1,4.5,0.5,6.8-4.3,8.2c-3.2,0.9-6,4-9.5,0.4c-0.9-0.9-1.7,0.6-2.1,1.5
		c-2.7,7.1-8.2,4.3-12.3,2.8c-4.2-1.7-4.8-6.2-3.9-10.6c0.2-1.2,0.8-2.3,1.4-3.9c3.3,1.9,6.2,3.7,8.2,7c0.8,1.3,2,3.3,3.7,2.5
		c2.2-0.9,0.1-2.8,0.1-4.2c0.2-5.6-3.2-10.4-4.1-16.5c3.8,1.5,4.1,6,8.7,6.2c-1.9-3.1-3.5-5.7-5.1-8.3c0.9-0.7,1.9-1.5,2.8-2.2
		c1.1,0,2.3,0,3.4,0.1c0.1,0.4,0.2,0.7,0.2,1.1c0.6,6,4,10.6,7.6,15.2C133.8,216.9,131.3,214.8,132.7,213.3z"/>
	<path class="st7" d="M207.6,423c0-3.3,3.3-3,4.9-4.5c4.7-0.6,9.4-1.7,12.3,3.8c0.6,1.2,2.6,1.7,4.1,2.4c1.2,0.5,2.1,2.6,3.5,1.3
		c1.2-1.1-0.6-2.6-0.4-3.9c-0.1-4.1,3.3-6.6,4.7-10c0.3-0.7,0.2-1.6,0.2-2.4c3.7-3.3,7.4-6.5,11-9.8c0.4,0.4,0.8,0.8,1.2,1.2
		c0,2.7-3.1,3.2-3.7,5.2c-0.9,3-6.1,5-3.8,8c2.6,3.5,4.5-2.9,7.5-2.2c1.7,0.1,3.3,0.2,5,0.4c0.1,3.4-4.6,2.6-4.9,5.6
		c-2.2,0.4-4.4,0.9-6.5,1.3c-1.9,0.3-1.5,1.4-0.9,2.6c0.5,8.7-4.7,1-7.1,2.6c-0.7,4.7,5.7,8.1,3,13.3c-1.4,0.3-1.9-3.1-4.2-0.8
		c1.1,2.7,2.2,5.5,3.3,8.3c-1.3,3.8-2.8,7.5-8,8.3c0.6-4,2.4-7.2,2.3-11c-0.2-11.9-6.8-18.9-18.7-19.6
		C210.9,422.9,209.2,423,207.6,423z"/>
	<path class="st5" d="M303.1,311.3c-1.1,0-2.3,0-3.4,0c-1.3-1.1-2.9-1.4-3.4,0.5c-1.4,5.1-4.3,4.4-7.6,2.2
		c-5.1-4.9-10.8-4.9-13.4,0.1c-0.4,0-0.9,0-1.3,0c-2.7,0-5.5-0.1-8.2-0.1c3.9-5.7,9.5-10.6,9-18.4c2.6-1.2,5.2-2.4,7.7-3.5
		c2-0.8,4.1-1.5,6.1-2.3c1.3,3.6-2,6.1-2.2,9.7c-0.3,4.7,1,5.7,4.9,5.7c4,0.2,8.1,1,12.1-0.8c2.4-0.1,4.9-0.2,7.3-0.2
		c2.7,0.7,7.5-2.6,7.4,3.8C313.2,309.6,307.3,307.3,303.1,311.3z"/>
	<path class="st3" d="M230.9,176.5c-3,3.9-6.8,6.7-11.4,3.5c-6.3-4.5-7.1-9.7-3-15c2.2-2.8,4.2-6.1,8.2-6.9
		c-0.7,1.7-1.6,4.3,1.7,3.2c6.8-2.2,13.6-4.5,19.2-9.1c1.6-0.2,3.3-0.3,4.9-0.5l0,0.3c0.4,0.4,0.8,0.8,1.2,1.2
		c-0.4,1.2-0.9,2.4-1.3,3.6C240.6,160,233.5,166,230.9,176.5z"/>
	<path class="st10" d="M286.1,347.1c1.1,1.9,1.4,4,1.2,6.1c-4.9,0.4-9.8,0.8-14.7,1.2c-4.2-1.2-4.3-7.9-9.8-7.3
		c-0.5-1.6,1.2-4.7-2.5-4.2c-2.2,0.3-3.8,1.3-3.6,4c0.1,1.5,0,3.1,0,4.6c-1.2-1.9-1.4-3.7-1.2-5.5c0.6-4.9-0.9-7.9-6.4-7.8
		c-1.2,0-2.3-0.6-3.5-1c0.9-5.4-0.3-11.5,8-13.3c4-0.8,4.7,3.9,7.8,2.4c1.3,2.2,2.7,4.5,2.6,7.2c0.3,5.1,3,9.1,6.1,12.9
		c0.6,0.7,1.5,2.4,2,1.6c3.4-4.7,6.4-1.3,9.3,0.4C283.8,349.9,284.8,348.3,286.1,347.1z"/>
	<path class="st3" d="M311.8,160.6c2,1.4,3.6,3.3,6.3,3.7c2.8,7.7,9.3,13.8,9.4,22.6c0,2.2,1,4.6-0.4,6.5c-2,2.8-4.3,6.2-7.8,1.1
		c-1.2-1.8-3.3-3-4.9-4.5c-1.2-2-2.5-4.1-3.7-6.1c0.6-7.9-3.5-15.3-2.3-23.3c0.8,0,1.6-0.1,2.5-0.1
		C311.1,160.5,311.4,160.6,311.8,160.6z"/>
	<path class="st3" d="M51.7,177.8c-4.9-0.4-7.7-4-11-6.9c-1.6-1.4-1.7-3.6,0.1-4.7c4.3-2.6,7.2-6.1,9.1-10.8
		c0.7-1.8,2.9-0.2,4.3,0.4c3.5,1.6,5.8,5.1,9.7,6c0,0,0,0,0,0c1.2,0.8,2.5,1.6,3.7,2.5c-1.5,1.5-2.9,2.7-5.3,1.5
		c-2.6-1.3-3.7,1.1-4.5,2.7c-1.1,2.3,1.5,2.4,2.7,3.2c1.8,1.2,3.9,1.2,5.9,1.2l0,0c1.1,1.5,3,0.9,4.4,1.7c1.5,0.8,4.1,1.1,3.3,3.4
		c-0.6,1.8-2.8,1-4.3,0.7c-2.2-0.4-4.7-2.3-5.9,1.5C59.9,179.3,55.8,178.5,51.7,177.8z"/>
	<path class="st4" d="M236.9,445.3c-1.1-2.8-2.3-5.6-3.3-8.3c2.3-2.2,2.8,1.1,4.2,0.8c2.7-5.2-3.6-8.6-3-13.3
		c2.4-1.6,7.6,6.2,7.1-2.6c12,5.8,20.8,14.6,26.1,26.9c-2.2,0.4-3.8-0.9-5.7-1.8c-3.7-1.7-7.3-4.4-11.8-3c-0.7-0.3-1.5-0.6-2.2-1
		C240.9,438.8,240.9,438.8,236.9,445.3z"/>
	<path class="st3" d="M131.5,14.4c0.7-3.1-1.9-6.6,3.3-8.9c7-3.1,9.9-3.1,13,3.8c2,4.4,3.7,9,5.5,13.5c3.2,8.4,1.7,10.5-7.1,10
		c-3.1-4.4-5.8-9.1-9.3-13C135.2,18,134.7,14.8,131.5,14.4z"/>
	<path class="st3" d="M126.6,84.4c-4.4,1.5-8.1,4.5-12.7,5.8c-5.3,1.5-8.6-0.6-11-5c-2.2-4.1,0.6-6.3,3-8.9c3.6-4,8.1-6.1,13.4-6.6
		C128.5,70.9,131.4,76.7,126.6,84.4z"/>
	<path class="st3" d="M200.2,79.5c3.1,4.6,9.3,7.7,6.3,15.2c-1.7,4.3-5.6,7.2-9.6,5c-4.5-2.4-8.6-5.4-12.9-8.1
		c-2.9-1.8-2-4.6-2.1-7.2c2.7,1.3,4-0.2,5.4-2.3C191.9,75.2,194,74.8,200.2,79.5z"/>
	<path class="st2" d="M165.8,99.3c-2.5,2.9-0.8,6.5-1.7,9.6c-1.3,0.5-2.6,1.2-3.9,1.6c-8,2.9-11.5,0.4-11.5-7.9c0-6.1,0-12.2,0-18.2
		c0-0.3,0-0.7,0-1c3.1-1.1,5.9,4.8,9.1,0.4c0.6,0.7,1.2,1.6,1.9,2.2C163.6,89.5,164.3,94.6,165.8,99.3z"/>
	<path class="st3" d="M245.6,337.2c1.2,0.3,2.3,1,3.5,1c5.5-0.1,7,2.9,6.4,7.8c-0.2,1.8,0,3.6,1.2,5.5c0-1.5,0.1-3.1,0-4.6
		c-0.2-2.7,1.5-3.7,3.6-4c3.7-0.5,2,2.6,2.5,4.2c0,1.6,0,3.3-0.1,4.9c-0.6,9.2-8.2,13.6-16.2,9.3c-2.9-1.5-3.1-4.7-3.3-7.5
		c-0.3-4.3-0.1-8.6-0.1-12.9C245.5,340.7,245.7,339,245.6,337.2L245.6,337.2z"/>
	<path class="st3" d="M269.2,180.3c-0.9,1.6-1.8,3.2-2.7,4.8c-4.6,0.3-6.9-3.4-9.2-6.1c-2.3-2.7,1.3-4.3,2.6-6.4
		c1.1-1.7,0.9-4.1-2-4.7c-0.8-0.4-1.6-0.8-2.5-1.2c1.3-3.8,4.9-6.6,4.9-11c1.2-0.5,2.4-0.9,3.7-1.4c2.6,3.3,8.7,2.2,9.4,7.8
		c0,0,1.8-0.2,2.8-0.2l0,0c-0.1,6.4-4.5,11.3-6,17.3c0,0,0,0,0,0C269.9,179.4,269.5,179.9,269.2,180.3z"/>
	<path class="st10" d="M200.2,79.5c-6.2-4.7-8.3-4.3-13,2.6c-1.4,2.1-2.8,3.6-5.4,2.3c-1.7-3.3-3.4-6.7-5-10
		c-0.8-3.4,3.3-5.1,2.8-8.4c1.2,0.8,2.3,1.6,3.5,2.4c4.8,3.9,10.2,5.2,16.4,5c5.7-0.2,9.8-5.1,15.6-4.9c2.6,1.1,5.4,1.7,4.9,5.8
		c-0.4,3.8-2.6,4.9-5.8,5.8C209.3,81.5,204.8,80.1,200.2,79.5z"/>
	<path class="st0" d="M249.4,418.1c0.3-3,5-2.2,4.9-5.6c2-0.1,4-0.3,6-0.4c2.4,2,5.3-1.3,7.4,0.6c5.4,4.8,12.5,6.7,18.3,10.6
		c1.3,1.8,2.8,3.1,6.1,2.4c-2.1-2.1-3.9-2.6-6-2.6c0-2-0.1-4-0.1-6c4.2-4.9,5.8-1.6,7.3,2.2c0.5,1.1,0.9,2.3,2.6,1.5
		c0,0-0.1,0-0.1,0c1.6,3.6,3.5,7.1,4.8,10.8c0.7,2,1.6,4.3,0.3,7.4C286.1,426,270,416.2,249.4,418.1z"/>
	<path class="st1" d="M107.1,372.2c-7.1,5.7-15.4,9.1-23.6,12.8c-1.3,0.6-2.8,1.2-4-0.2c-1.5-1.8,0.1-3.1,1.2-4.2
		c3.8-3.7,7.6-7.4,11.6-10.9c2.2-1.9,3.1-3.2-0.5-4.5c-3.2-1.2-6.4-2.8-8.5-5.7c8.5-0.9,0.6-5.1,1.6-7.6c1.9,0.4,3.7,1,5.1,2.4
		c-2.6,3.5,1,4.2,2.7,5.1c3,1.6,6.4,2.5,9.6,3.7c-1.2,2.8-4.9,2.9-5.2,6c-0.1,0.2-0.1,0.3-0.2,0.5c0.1-0.1,0.2-0.3,0.3-0.4
		c2.1-1.1,4.2-2.2,6.4-3.2c2.8-1.3,5.7-2.1,8.2,0.8C110.4,368.8,104.5,366.8,107.1,372.2z"/>
	<path class="st11" d="M132.5,377.8c2.9,0.4,5.8,0.8,8.8,1.2l0,0c0.6,0.9,1.5,1.2,2.5,1.2l0,0c3.7,3.9,10,2.3,13.9,6.7
		c-2.6,1.3-5.5-2.1-7.7,0.5c-1.9-0.7-3.8-1.5-5.7-2.2c-4.8-1.8-8.3-2.7-13.1,2.3c-6.8,6.9-16.7,9.9-25.7,13.8
		c-1.3,0.6-3,0.9-3.8-0.6c-1-1.9,0.8-2.6,2-3.1c4.6-2,7-6.1,9.7-9.9c5.7-0.2,9.1-5.5,14.4-6.3c0.4,0,0.8,0.1,1.1,0.1
		c0.5-0.5,0.9-0.9,1.4-1.4C131,379.3,131.8,378.6,132.5,377.8z"/>
	<path class="st8" d="M268.8,132.5c0.8,1.4,2.1,2.2,3.7,2.4c1.1,2.2,4.3,2,5.3,4.6c0.1,0.3,3,3.6,4.7,0.2c3.8,0,7.8-0.5,10.8,2.6
		c0.7,0.6,0.7,1.6,2.1,1.5c5.8-0.3,11.3-7.2,10.4-13.1c0.4,0,0.9,0.1,1.3,0.1c0.3,0.2,0.7,0.3,1.1,0.3c0,2.9,0,5.8,0,8.7
		c-1.4,0.7-1.4,2.1-1.7,3.3c-5.7,4.3-12.2,5.8-19.2,5.7c-3-2.4-6.4-2.1-9.8-1.8c-1.3-0.5-2.6-1.1-3.9-1.3c-6.2-1-10.1-5-13.7-9.7
		c1.1,0,2.1-0.2,2.9-1.2C265.1,134.9,266.2,131.7,268.8,132.5z"/>
	<path class="st10" d="M294.7,239.1c-6.4,1.7-8.9,8.4-9,12.5c-0.3,8.7-6.2,12.6-10.6,18.1c-2-0.8-4.1-1.6-6.1-2.5
		c0-0.8,0.1-1.6,0.1-2.4c4.6-2.8,5.7-6,1.1-9.8c0.1-1.8-0.4-3.4-1.3-4.9c3.4,0.8,5.7-1.9,8.6-2.5c0.7,2.8,1.7,1.5,2.4,0.1
		c1.5-2.8,2.7-5.9,4.5-8.5C287.8,234.3,290.6,234.3,294.7,239.1z"/>
	<path class="st11" d="M293.4,419.3c-1.5-3.9-3.2-7.1-7.3-2.2c-2-1.5-4-2.5-6.6-2.6c-3.3-0.2-2.2-1.9-0.7-3.4
		c2.4-2.7,4.6-5.6,7.3-7.9c3.8-3.2,8.3-5.4,13.5-3.3c-2.5,2-5,4.1-7.6,6.1c-3.5,2.8-1.8,3.7,1.4,4c1.1,3.4,4,2,6.2,2.2
		c4.3,0.4,8.9-0.8,13,2.3c-1.3,2-3.8,3.3-3.2,6.1c-4.5,0.1-9,0.1-13.5,0.2c0,0,0.1,0,0.1,0C295.7,419.3,294.3,419.7,293.4,419.3z"/>
	<path class="st10" d="M266.8,201.2c3.1-7.3,9-13.1,10.7-21.1c0.3,0.3,0.8,0.6,0.7,0.9c-0.4,6.6,2,12.2,6,17.4
		c3.6,4.7,0.8,8.6-2.6,11.6c-2.6,2.3-10.4,0-12.6-3.3c-0.7-1.1-1.4-1.9-2.7-2C266.5,203.6,266.6,202.4,266.8,201.2z"/>
	<path class="st10" d="M257.9,167.9c2.9,0.6,3.1,3,2,4.7c-1.3,2.1-4.9,3.6-2.6,6.4c2.3,2.8,4.6,6.4,9.2,6.1
		c-0.4,0.9-0.7,1.7-1.1,2.6c-5.3-0.6-8.5,1.9-10.2,6.7c-1.5,4.2-3,5.8-7.2,2c-6.7-6-7-7.7,0.2-16.8
		C251.3,175.6,254.7,171.8,257.9,167.9z"/>
	<path class="st3" d="M104.6,214.5c-2.4,4.9-4.1,10.1-7.4,14.6c-4.5,6-11.7,5.5-15.4-0.9c-1.4-2.4-3.9-4.2-3.2-7.4
		c2.9-2.6,5.7-4.5,6.5,1.7c1.7-1.1,3.1-2.8,4.2-2.7c6.7,1,7.7-4.4,10-8.5c1.2-2,0.8-5.6,4.7-5.2
		C104.3,208.8,104.5,211.7,104.6,214.5z"/>
	<path class="st3" d="M213.8,134.8c1.4-0.1,2.8,0,3.7-1.4c2.7,0.2,5.7-0.7,7.5,2.4c-0.7,3.5,0.4,5.4,4.3,5.1c2.6-0.2,5.2,0,7.8-0.1
		c-0.4,1.9,1.5,4.1-1.4,5.8c-3.8,2.2-7.2,5.1-10.8,7.7c-0.8,0-1.7,0-2.5,0.1c-1.7-2-3.2-5.3-5.2-5.6c-5.8-1.1-4.3-5.4-4.6-8.7
		C212.3,138.3,213.3,136.5,213.8,134.8z"/>
	<path class="st11" d="M97.1,369.2c0.3-3.1,4-3.2,5.2-6c-3.3-1.2-6.6-2.2-9.6-3.7c-1.7-0.9-5.3-1.6-2.7-5.1c2.7,0,4.1,3.5,7.2,2.6
		c0.3,0.2,0.5,0.4,0.8,0.6c0-0.2,0-0.4,0.1-0.5c-0.3,0-0.6,0-0.9-0.1c1.4-2.1,0.1-4-1.1-5.3c-3.1-3.3-4-7.3-4.2-11.6
		c1.4-0.1,2.8-0.2,4.2-0.3c1.2,0.1,1.9,1,2.5,1.9c0.7,6.6,3.9,11.3,10.5,13.2c1.9,0.6,2.1,2.3,2.9,3.6c-0.9,1.5-3.3,0.1-4.1,2.4
		c4.8,2.5,9.2,6,15,6c0.1,0.4,0.1,0.7,0.2,1.1c-0.3,2.3-1.7,1.7-3.1,1.3c-2.7-0.8-5.4-1.6-8.1-2.4c-2.5-2.9-5.3-2-8.2-0.8
		C101.4,367,99.3,368.2,97.1,369.2L97.1,369.2z"/>
	<path class="st10" d="M8.8,256.3c2.1,0.1,2.1-2.2,4.1-3.3c2.8,8.7,5.6,17.2,8.3,25.8c1.6,5.1,3.9,8.6,10.1,6c0.5-0.2,1.4,0.6,2.1,1
		c-0.4,2.1-0.8,4.2-1.2,6.3c-0.3,0.6-0.7,1.2-1,1.9c-1.6,1.9-3.1,2.1-4-0.5c-1.1-3.6-3.4-4.8-7-5.6c-3.7-0.8-6.9-3.5-8.9-7
		c4.2-2.4,5.2-7.1,2.1-11.3c-2.3-3.2-5.3-5.9-7-9.6C6.3,258.2,7.2,257,8.8,256.3z"/>
	<path class="st2" d="M153,205c-1-0.1-2-0.2-3.1-0.3c-5.6,1.1-9.1-5.4-14.8-3.8c-0.9-0.8-1.8-1.6-2.7-2.4c6.8-1.6,12.9-5.8,20-6.3
		c1.9-0.1,3.5-0.9,4.8-2.4c0.4,0,0.8,0,1.2,0c3.1,0.6,6.4,1.6,7,5c0.6,3.5-2.8,5.2-5.2,6.9C158.1,203.3,155.5,204,153,205z"/>
	<path class="st12" d="M222.2,272.1c0-1.6,0-3.2,0-4.8c9.2,6.7,11.8,6.7,17.3,0c1.7-2.2,1.6-5,2.4-7.5c1.4,0.6,3.1,1.9,3.7-0.9
		c0.4-1.9,0.8-3.6,2.9-4.2c1.4,1.1,0.6,2.7,1,4c1.7,4.9,1.9,9.9-0.2,14.8c-2.1,0.5-4.2,1-6.3,1.4c-6.3-0.3-9.1,4.7-12.6,8.5
		C225.9,281,226.1,275.1,222.2,272.1z"/>
	<path class="st2" d="M106.9,144.6c-3.6-1.1-3.6-4.9-3.3-7c1.2-7.8-4.2-12.2-7.7-17.6c0.2-1.5,1.3-3.7,2.1-3.1
		c3,2.2,5.6,0.2,8.2-0.3c7-1.4,7.4,4.1,9.3,8.3c-0.4,2.5-0.8,4.9-1.2,7.4c-0.6,0.8-1.6,2.4-1.6,2.3c-6-3.6-4,1.6-4.5,4
		C107.7,140.6,107.3,142.6,106.9,144.6z"/>
	<path class="st2" d="M164.6,37.7c-1.9,1-3.6,1.2-4.9-1c1.8-9.8,4.1-19.5,0.1-30.3c0,7.6,0,14.3,0,22.6c-4.6-7.2-1-14.2-3.9-21
		c-1.6,3.9,1.1,6.9-0.4,10.2c-3.1-3-4.4-7.1-5-10.6c-0.5-3.3,3.5-4.8,6.6-5.1c3.6-0.3,6.1,1.7,7.5,5.1c2.8,7.1,3.2,14.3,0.9,21.6
		C164.7,32.1,164.6,34.9,164.6,37.7z"/>
	<path class="st3" d="M56.6,193.6c-10.3-0.1-13.2-2.3-13.5-9.8c-0.2-3.9,0.8-5.5,4.8-3.2c1.5,0.9,3.4,1.2,5.1,1.8
		c5.7,1.2,11.5,2.5,17.2,3.7c2.1,2.5,6.1,4.9,0.1,7.5C65.7,194.9,61.2,191.2,56.6,193.6z"/>
	<path class="st4" d="M248.1,399.9c-3.7,3.3-7.4,6.5-11,9.8c-4,2.4-6.2,7.4-11.6,8c1.7,3,3.7,4.5,6.7,4.4c-0.2,1.4,1.6,2.9,0.4,3.9
		c-1.4,1.3-2.4-0.8-3.5-1.3c-1.5-0.6-3.5-1.2-4.1-2.4c-2.9-5.5-7.6-4.4-12.3-3.8c-0.1-0.3-0.1-0.6-0.1-0.9
		c10.9-4,21.2-8.9,29.4-17.6c4.9-5.2,11-9,18.3-10.2c1.6-0.3,4.2-1.7,4.5,1c0.3,2.6-2.8-0.3-3.8,1.3c-0.2,0.4-1.1,0.3-1.7,0.5
		C254.9,394.1,251.2,396.6,248.1,399.9z"/>
	<path class="st10" d="M126.6,84.4c4.8-7.6,1.9-13.4-7.4-14.7c1.3-1.6,3-2.2,4.9-2.4c3.7-0.8,7.3-1.5,11-2.3c-0.3,3.4,3.5,5,3.8,8.2
		c-0.5,0.9-1,1.7-1.5,2.6c-4.9,1.2-4.9,4.9-4.7,8.8c-4.1,5.9-7.8,11.9-6.2,19.6c-5.4-0.4-7.2-3.2-5.2-8.2
		C123,92,124.8,88.2,126.6,84.4z"/>
	<path class="st3" d="M33.3,246.4c7.7-6.4,7.9-6.2,11.5,4c1,2.9,1.3,6.4,4.5,8.3c1.3,3.4,2.6,6.7,4,10.1c0,0,0,0,0,0
		c-4.5-4.5-10.6-3.9-16.1-5.2c-0.4-1.2-0.9-2.4-1.3-3.6C34.9,255.4,32.2,251.3,33.3,246.4z"/>
	<path class="st1" d="M216.2,355.7c0.2,0.8,0.3,1.7,0.5,2.5c-6.2,4.5-13.6,7.6-17.7,14.7c-2.7-0.2-2.1,3.6-4.6,3.8
		c4-14.8,11-28.4,16-42.8c1.4-2.3,3.1-4.2,5.9-4.7c-4.1,10.7-8.3,21.3-12.6,32.6C209,360.7,211.2,355.3,216.2,355.7z"/>
	<path class="st2" d="M131.5,14.4c3.2,0.3,3.7,3.6,5.4,5.4c3.5,4,6.3,8.6,9.3,13c-1.6,2-3.6,2.8-6.1,2.4c-1.3-2.7-3.8-2.5-6.2-2.4
		c-2.7-3.9-8.1-2.8-11.1-6.1c1.4-5.8-2.4-9-6.1-12.3c2.7-2.5,4.5-0.5,6.7,1.1c3.5,2.5,6.1,6.3,10.5,7.5c0.1,0.4,0.1,0.8,0.2,1.2
		c0.2-0.1,0.4-0.2,0.6-0.3c-0.3-0.3-0.5-0.6-0.8-0.8C133.7,20,131,17.7,131.5,14.4z"/>
	<path class="st2" d="M136,53c-8.3-2.5-17.6-0.4-25.3-5.4c1.5-3,3.7-2.2,6.2-1.5c1.4,0.4,4.4,0.6,4-1c-1-3.9,2.5-6.3,2.1-9.7
		c2,0.4,4.1,0.8,6.1,1.2c2.6,4.2,8.4,5.6,9.8,10.8c0,0,0.1,0.6,0.1,0.6C137.9,49.6,136.9,51.3,136,53z"/>
	<path class="st10" d="M104.2,206c-3.9-0.4-3.6,3.2-4.7,5.2c-2.3,4-3.3,9.4-10,8.5c-1.1-0.2-2.5,1.6-4.2,2.7
		c-0.8-6.2-3.6-4.3-6.5-1.7c-4.7,2.7-8.8-0.2-13-1.6c-2.8-0.9-1.4-3.8-1.8-5.8c1.6,0,3.3,0,4.9,0c3.4,3.3,7.4,1.2,11.1,1.1
		c0.8,0,1.5-0.1,2.3-0.1c0.5,0.7,1.4,1.5,1.9,1c4.1-4.5,11.5-3.9,14.5-10c1-2,3.5-1.8,5.6-1.6C104.2,204.4,104.2,205.2,104.2,206z"
		/>
	<path class="st12" d="M261.4,326.4c-3.2,1.5-3.9-3.3-7.8-2.4c-8.3,1.8-7.1,7.8-8,13.3c0,0,0,0,0,0c-0.8,0.4-1.6,0.8-2.4,1.3
		c-0.8-0.4-1.6-0.8-2.4-1.2c-0.4-1.4-1.1-2.7-1.1-4.1c0.2-5.7-3.3-6.1-7.6-5.7c-3-1.9-3.3,0.3-3.7,2.4c-0.8,0-1.7,0-2.5,0
		c0.3-4.1,1.5-7.6,6.2-8.5c0.3,0.9,0.1,3.5,1.2,2.4c6.2-5.9,13.8-2.5,20.7-3.7C259.1,319.3,261.2,321.7,261.4,326.4z"/>
	<path class="st3" d="M172,30.4c-3.5-3.7-3.6-25.3-0.1-28.7c3.5-3.4,6.7-0.9,10,0.4C181.6,12.7,175.8,21.2,172,30.4z"/>
	<path class="st3" d="M122.9,35.4c0.4,3.4-3.1,5.9-2.1,9.7c0.4,1.6-2.6,1.4-4,1c-2.5-0.7-4.7-1.5-6.2,1.5c-3.5-0.7-6.5-2.3-9-4.7
		c-4-3.8-3.3-7.1,2.4-8.3c4.1-0.8,8.5-0.4,12.7-0.5C118.8,34.5,120.8,34.9,122.9,35.4z"/>
	<path class="st10" d="M56.6,133.5c7.3,4.8,10.4,12.7,14.8,19.6c-2.5,2.6-0.1,4.9,0.6,7.1c0.9,3.1-0.2,4-3,4h0
		c-1-2.2-2.8-2.6-4.9-2.5c0,0,0,0,0,0c0-0.8,0-1.6,0-2.5c-2.2-8-4.6-16-12.3-20.8C51.2,134.8,52.8,133,56.6,133.5z"/>
	<path class="st12" d="M165.8,99.3c-1.5-4.7-2.2-9.8-6.1-13.3c-0.7-0.6-1.3-1.5-1.9-2.2c-3.2,4.4-6-1.5-9.1-0.4
		c-0.4,0.4-0.9,0.7-1.3,1.1c0,0,0,0,0,0c-1.2-0.8-1.9-2.5-3.7-2.4c0.8-2,1.6-4.1,2.5-6.1c3.4-0.1,6.4,1.5,9.6,2.3
		c1.3,0.2,2.6,0.4,3.7-0.6c1.2,0,2.4,0,3.7-0.1c0.4,10.7,1.4,11.5,10.1,8c4.5,0.4,7,2.9,7.3,7.5c-2.1-0.4-4.1-0.9-6.2-1.3
		c-2-0.2-4.6-5.2-5.6-0.3c-0.5,2.5-2.3,4.9-1.6,7.7C166.8,99.2,166.2,99.2,165.8,99.3L165.8,99.3z"/>
	<path class="st8" d="M225.7,296.6c0.1-0.4,0.2-0.8,0.4-1.1c1.2,0.1,3.1,0,3,1.2c-0.2,5.7,4.2,6.1,7.9,7.4c0.4,0.4,0.8,0.8,1.3,1.3
		c-0.3,2.7,0.8,4.8,3.3,5.7c1.9,0.7,3.6,0.4,3.9-2.2c3.3-0.4,6.5-0.8,9.8-1.2c2,0.4,4,0,5.9-0.7c1.7-0.6,2.6,0.5,3.3,1.8
		c0.8,1.6,0.3,2.7-1.2,3.5c-1,0.6-2.4,0.6-3,1.8c-1.9,1.6-4.2,1.4-6.3,1.2c-5.7-0.7-11.4-1.6-17.1-2.4c-5.3-3.5-9-8.4-12.3-13.7
		C225,298.4,226.2,297.9,225.7,296.6z"/>
	<path class="st3" d="M210,62.3c-1.6,0.8-3.3,1.6-4.9,2.4c-2.4,0-4.9,0-7.3,0c-1.2-1.5-3-1-4.5-1.4c-1.1-0.2-2.1-0.8-2.2-1.8
		c-0.2-1.3,1-1.6,2-1.7c1.8-0.2,2.6-1.7,2.5-3c-0.6-9.6,8-8.7,13.2-11.7c2.2,3.3-2.7,6.4-0.3,9.6C210.3,57.1,210.7,59.6,210,62.3z"
		/>
	<path class="st11" d="M194.4,376.6c2.5-0.1,1.9-4,4.6-3.8c-4.7,15.4-9.7,30.7-13.5,46.4c-0.6,2.6-0.9,5.2-1.3,7.8
		c-1.4,1.7-2,4.1-4.5,4.8c2-14.2,5.1-28.1,10.4-41.5C191.9,385.9,193,381.2,194.4,376.6z"/>
	<path class="st4" d="M175.1,323.9c0.6,16.4,0.6,32.8,0,49.1c-1.1,0-2.1-0.1-3.2-0.1c-1.7-9.7-0.6-19.4-0.7-29.2
		c-0.1-6.2-1-12.6,0.6-18.8C173.4,326,174.4,325.3,175.1,323.9z"/>
	<path class="st3" d="M99.5,66.1c-3.2-3.5-1.8-10.5,2.3-12.1c9.1-3.4,12.6-2.1,18.1,6.5c0.3,0.4,1.1,0.5,1.6,0.7c0,0.4,0,0.8,0,1.2
		c-2,0.8-4.1,1.6-6.1,2.4C110,62.3,104.7,63.1,99.5,66.1z"/>
	<path class="st10" d="M213.8,134.8c-0.5,1.7-1.4,3.5-1.3,5.2c0.3,3.4-1.2,7.7,4.6,8.7c2,0.4,3.5,3.7,5.2,5.6
		c-3.6,1.1-7.1,2.8-10.8,3.2c-4.2,0.5-7-3.3-7.9-6.3c-1.3-4-0.9-8.8,3.5-11.7C209.3,138.1,211.5,136.4,213.8,134.8z"/>
	<path class="st3" d="M68.8,213.3c-1.6,0-3.3,0-4.9,0c-7.3,1.9-9.7-3.8-12.5-8.5c-1.6-2.8,0.5-3.4,2.7-3.8
		c5.8,1.3,11.6,6.6,17.4-0.2c0.4-0.1,0.7-0.1,1.1-0.2c-0.1,2.6-0.4,5.4,3.6,5.1c0.5,0.9,1,1.8,1.4,2.8c0,0.3-0.1,0.7-0.2,1
		C74.4,210.3,71.5,211.7,68.8,213.3z"/>
	<path class="st10" d="M224.8,154.3c3.6-2.6,7-5.5,10.8-7.7c2.9-1.7,1-3.9,1.4-5.8c5.6-1.5,4.2,4,6.2,6.2c-5.2,4.6,2.5,3,2.4,5.1
		c-5.7,4.6-12.5,6.9-19.2,9.1c-3.3,1.1-2.3-1.5-1.7-3.2C224.8,156.8,224.8,155.6,224.8,154.3z"/>
	<path class="st2" d="M310.6,304c-2.4,0.1-4.9,0.2-7.3,0.2c-1.1-4.5,3.5-7.8,2.5-12.3c4.5-0.4,8.9-1,13.4-1.2
		c2.1-0.1,5.1-0.8,5.6,2.2c0.4,2.6-0.6,5.2-3.4,6.6c-2.2,1-4.3,2.4-6.9,2.3C312.7,301.6,311.1,301.9,310.6,304z"/>
	<path class="st4" d="M299.6,399.8c-5.3-2.1-9.7,0.1-13.5,3.3c-2.7,2.3-4.9,5.2-7.3,7.9c-0.9-1.3-1.8-2.7-2.8-4
		c2.6-2.6,5.3-5.1,7.7-7.8c7.7-8.4,17.4-9.2,29.1-7.7C307.3,393.9,303.4,396.8,299.6,399.8z"/>
	<path class="st4" d="M123,367.9c-0.1-0.4-0.1-0.7-0.2-1.1c-0.4-3.5-0.5-7.2-3.6-9.8c0.8-0.5,1.3-0.9,0-1.3l0.1,0
		c-2.2-10.6-3.3-21.3,0.3-31.9c0.7-2.2,1-4.9,4.3-5.9c-1.4,2.6,1,4.8,0.2,7.2c-5,13.8-0.5,27.1,1.6,40.6c-0.1,0.8-0.1,1.5-0.2,2.3
		C124.6,368,123.8,367.9,123,367.9z"/>
	<path class="st10" d="M319.3,159.3c0-1.2-0.1-2.5-0.1-3.7c4-1.3,6.3,0.3,8.9,3.7c3.8,5.2,8.5,9.7,11.7,15.4c1,1.8,2.1,2.9-0.4,4.3
		c-2.1,1.2-3.1,2-5.4-0.4c-5-5.2-7.2-12-11.8-17.3C321.3,160.4,320.7,159.4,319.3,159.3z"/>
	<path class="st10" d="M210,62.3c0.7-2.8,0.3-5.2-1.5-7.6c-2.4-3.2,2.5-6.3,0.3-9.6c2.5-2.1,5.4-1.4,8.1-1c4.1,0.7,1.3,4.6,2.4,6.2
		c3.7,5.4,4.1,9.1-3.4,10.8C214,61.6,212,61.9,210,62.3z"/>
	<path class="st7" d="M309.4,420.6c-0.6-2.8,1.9-4.1,3.2-6.1c-4.1-3.2-8.7-2-13-2.3c-2.2-0.2-5.1,1.2-6.2-2.2
		c12.6-0.1,25.3,0.4,38.8-0.9C325.2,415.2,318.7,420.4,309.4,420.6z"/>
	<path class="st10" d="M172,30.4c3.8-9.3,9.7-17.8,9.9-28.3c5.9,1.7,3.3,6.4,3.3,9.9c0,2.1-1.7,4.2,0.4,6.1c-0.6,4.5-3.8,8-4.9,12.2
		c-2.9-1.7-3,2.2-4.9,2.4C173.9,32.8,172.7,32,172,30.4z"/>
	<path class="st6" d="M300.6,118.2c-0.1,1.2,0.1,2.5-0.3,3.6c-0.5,1.3-1.4,2.7-3,2.5c-1.6-0.2-1.2-1.8-1.4-3c-1-5.2-4.5-6.6-8.8-3.5
		c-1.5-3-5,0.3-6.6-1.9c-3.6-4.8-7.7-2.1-11.7-0.9c0.1-1.3,0.2-2.7,0.2-4c2.9-1.9,6.5-1.3,9.6-2.5c4.6,0.6,9.4,0.6,13.5,3.1
		C295,113.8,297.8,116,300.6,118.2z"/>
	<path class="st3" d="M6.3,260c1.7,3.7,4.7,6.4,7,9.6c3,4.2,2.1,8.9-2.1,11.3c-0.4-0.4-0.8-0.8-1.2-1.2c-0.3-3.1-2.1-1.9-3.7-1.2
		c-2-1-5.6,2-6.2-2.2c-0.4-2.9,1.4-4.4,4.4-4c1,0.1,2,0,3,0c0.1,0.1,0.3,0.2,0.4,0.3c-0.1-0.1-0.3-0.2-0.4-0.2
		C2.1,268.6,0.9,264.6,6.3,260z"/>
	<path class="st3" d="M235.8,181.4c0-1.6,0-3.3,0-4.9c1.3-4.8,2.7-9.3,7-12.6c5.7-4.5,6.9-4.3,9,2.8c-2.1,2.9-4.1,5.7-6.2,8.6
		C241,175.2,240.7,181.8,235.8,181.4z"/>
	<path class="st12" d="M197.8,64.8c2.4,0,4.9,0,7.3,0c1.6,1.8,3.8,1.2,5.7,1.3c1.9,0.1,3.8,0.1,4.2,2.5c-5.8-0.2-9.8,4.8-15.6,4.9
		c-6.1,0.2-11.6-1.1-16.4-5c3.7-1.6,7.7-2.4,11.7-1.9C196.5,66.7,197.5,66.7,197.8,64.8z"/>
	<path class="st7" d="M125.5,365.7c-2.1-13.5-6.6-26.9-1.6-40.6c-0.3,8.9,1.8,17.3,5.1,25.5c0,2.1,0,4.2,0,6.3
		C128.7,360.2,129.1,363.7,125.5,365.7z"/>
	<path class="st10" d="M174.4,91.8c2.1,0.4,4.1,0.9,6.2,1.3c5.6,5.9,6.3,11.6,2.1,14.9c-3.5,2.8-6.3,2.7-9.4-0.6
		c-1.9-2-3-4.8-5.9-5.8c-0.5-0.8-1.1-1.6-1.6-2.4c0.5,0,1,0,1.5-0.1c4.4-0.3,6.6,4.1,10.3,5.1C179.2,99.2,177.6,95.2,174.4,91.8z"/>
	<path class="st13" d="M237.1,304.1c-3.7-1.3-8.1-1.7-7.9-7.4c0-1.2-1.9-1.1-3-1.2c0.3-4.4,2.9-8,4.3-12c3.5-3.9,6.3-8.8,12.6-8.5
		c-0.8,1.5-2.3,2.6-2.4,4.5c-7.5,4.5-9.4,13.1-4.8,22.1C236.3,302.4,236.7,303.3,237.1,304.1z"/>
	<path class="st10" d="M143.8,82c1.8-0.1,2.4,1.6,3.7,2.4c-3.5,6.9-6.3,14.3-12.6,19.2c-1.8,1.4-4.3,5.8-7,0.5
		c7.2-4.8,9.5-11.4,7.3-19.6C139.6,89.2,141.9,86.3,143.8,82L143.8,82z"/>
	<path class="st10" d="M214.8,301.8c-11,0.3-22.1-2.4-33,1.2c-3.1-4.1-2-6.8,3.4-7.2c4.2-0.3,8.4,0.6,12.6,0.9
		c5.6,1.2,11.5,0.9,16.9,2.9C214.8,300.3,214.8,301,214.8,301.8z"/>
	<path class="st10" d="M33.3,246.4c-1.1,4.9,1.7,9,2.5,13.5c-0.9,0.4-1.7,0.9-2.6,1.3c-5.2-1.3-1.7-8-4.9-9c-3-1-6.9,2.5-10.4-0.5
		c-1-0.9-2.4-1.4-3-2.8c4.5-2.4,8.8-5.4,14.3-2.9C30.4,246.5,31.9,246.3,33.3,246.4z"/>
	<path class="st10" d="M251.8,166.7c-2.1-7.2-3.4-7.3-9-2.8c-4.2,3.4-5.7,7.9-7,12.6c-1.6-1.1-3.3-1.1-4.9,0
		c2.6-10.5,9.7-16.5,19.5-19.7c4,5.5,6.7,0.1,10-1.2c0,4.4-3.6,7.2-4.9,11C254.2,166.7,253,166.7,251.8,166.7z"/>
	<path class="st10" d="M122.9,35.4c-2-0.4-4.1-0.8-6.1-1.3c-1.2-2.8-4.7-3.9-4.9-7.3c3.7-2.8,7.4,0.5,11.1-0.1
		c3,3.3,8.4,2.3,11.1,6.1c2,6.1-3.1,2.7-4.9,3.7C127,36.2,124.9,35.8,122.9,35.4z"/>
	<path class="st3" d="M51.7,138.5c7.6,4.9,10.1,12.8,12.3,20.8c-3.6-2.6-6.9-5.7-10.9-7.5c-5.7-2.6-4.4-7.3-4.7-11.6
		C48.3,138.3,50.3,138.6,51.7,138.5z"/>
	<path class="st14" d="M71.5,200.9c-5.7,6.8-11.6,1.5-17.4,0.2c2.3-2,5-3.9,2.4-7.5c4.6-2.4,9.1,1.2,13.7,0.1
		C72.6,195.8,71.4,198.5,71.5,200.9z"/>
	<path class="st7" d="M276,407c0.9,1.3,1.8,2.7,2.8,4c-1.5,1.5-2.7,3.2,0.7,3.4c2.6,0.2,4.7,1.2,6.6,2.6c0,2,0.1,4,0.1,6
		c0,0-0.1,0.2-0.1,0.2c-5.9-3.9-12.9-5.8-18.3-10.6c-2.1-1.9-5.1,1.4-7.4-0.6C265,408.7,271.2,409.8,276,407z"/>
	<path class="st10" d="M238.3,116.3c-1.2-0.8-2.5-1.6-3.7-2.4c1.6-3.9,4.6-6,8.8-6.1c4.8-0.1,8.6-3.7,13.3-3.8c0,1.2,0,2.5,0,3.7
		c0,2,0,4.1,0,6.1c-3.2,1.2-6-4.4-7.9-2C245.8,115.8,241.4,114.1,238.3,116.3z"/>
	<path class="st5" d="M214.8,299.5c-5.5-2-11.3-1.7-16.9-2.9c-2.7-2.4-2.4-4.1,1.2-5c3.2,0.1,6.4,0.3,9.5,0.4c0.4,1.4,1.2,2.3,2.8,2
		c0.8,0,1.5,0.1,2.3,0.1c4.1,0.5,8.7-2,12.1,2.3c0.5,1.2-0.8,1.8-1,2.7C221.4,299.4,218.1,299.5,214.8,299.5z"/>
	<path class="st5" d="M225,135.8c-1.8-3-4.8-2.1-7.5-2.4c1.2-1.2,2.4-2.3,3.6-3.4c5.6-1.3,10.4,3.1,15.9,2.4c1,1.3,2.4,1.2,3.8,1
		c0.7,0,1.5,0,2.2,0c2.7,1.9,6.6-3.8,8.8,1.4c-3.3,1.3-6.6,2.6-10,3.8C236,139.3,231,134.8,225,135.8z"/>
	<path class="st12" d="M286.1,347.1c-1.3,1.2-2.3,2.7-4.6,1.4c-2.9-1.7-5.9-5.1-9.3-0.4c-0.5,0.7-1.5-0.9-2-1.6
		c-3.1-3.8-5.8-7.8-6.1-12.9c1.3,1.2,3,2.2,4,3.7c3.5,5.3,7.6,5.8,13.2,1.3l0.1-0.2c1.2,0.1,2.4,0.2,3.5,0.3
		C285.3,341.4,285.7,344.3,286.1,347.1z"/>
	<path class="st7" d="M137.7,368.9c-0.8,1.5,1.1,5.3-2.1,4.2c-3.3-1.1-6.3-4.4-5.5-8.6c0.4-2.1,1.6-4.1,1.5-6.4
		c1.3-1.3,2.3-2.7,1.8-4.7c-0.8-3.4,1.4-4.5,4.1-5.2C137.6,355.2,137.6,362,137.7,368.9z"/>
	<path class="st3" d="M305.8,291.9c1,4.5-3.6,7.8-2.5,12.3c-3.9,1.9-8,1-12.1,0.8C290.1,294,299.6,294.8,305.8,291.9z"/>
	<path class="st10" d="M303.1,311.3c4.3-4,10.1-1.7,14.9-3.6c2,10.7-1.1,14.7-11.6,14.8c-1.8,0-3.7,0-5.5,0c0.6-2.9,2.9-2.4,4.9-2.4
		c3.3,0,6.2-0.2,6.2-4.6c0.1-5.1-3.6-3.7-6.4-4C304.7,311.4,303.9,311.4,303.1,311.3z"/>
	<path class="st3" d="M122.9,26.7c-3.7,0.7-7.4-2.7-11.1,0.1c-2.1-1.4-4.9-3.7-3.2-5.6c2.3-2.5,3.2-7.3,8.1-6.8
		C120.5,17.7,124.3,20.9,122.9,26.7z"/>
	<path class="st5" d="M104.2,206c0-0.8,0.1-1.6,0.1-2.4c0-0.6,0.1-1.3,0.1-1.9c2.7-0.3,5.3-0.5,8-0.8c2.5,1.8,6-2.7,8.1,1.4
		c-0.9,0.7-1.9,1.5-2.8,2.2c-7.4,0.6-7.6,0.7-5.4,7.1c1,3.1,0.6,4.2-2.9,3.2c-1.5-0.4-3.2-0.2-4.8-0.3
		C104.5,211.7,104.3,208.8,104.2,206z"/>
	<path class="st4" d="M266.8,201.2c-0.2,1.2-0.3,2.4-0.5,3.6c-2.4,7.6-4.9,15.2-7.3,22.9c-1.3-0.6-2.9-0.5-3.7-2
		c3.3-10,6.6-20.1,9.9-30.1C266.6,197.2,266.4,199.3,266.8,201.2z"/>
	<path class="st1" d="M211.2,441.9c0.2-3.1-0.8-5.2-4.3-5.2c-3.5,0-5.9-2.5-7.6-4.6c-4.1-5.2,1.4-6,4.4-7.8c1,5.9,4.6,9.7,9.8,12.3
		c1.7,0.8,5.4,0.4,4.3,3.5C216.9,442.7,214.1,443.7,211.2,441.9z"/>
	<path class="st4" d="M84.8,351.9c-1,2.4,6.9,6.7-1.6,7.6c-5.1-3.3-8.6-8.6-14.4-11c-0.9-0.4-1.6-1.4-1-2.5c0.6-1.1,1.7-0.9,2.7-0.6
		C75.6,346.9,80.4,348.9,84.8,351.9z"/>
	<path class="st3" d="M135.1,84.5c2.1,8.2-0.2,14.9-7.3,19.6c-0.4,0-0.8,0-1.2,0c-1.6-7.7,2.1-13.7,6.2-19.6
		C133.5,84.5,134.3,84.5,135.1,84.5z"/>
	<path class="st5" d="M132.4,198.7c0.9,0.8,1.8,1.6,2.7,2.4c0.9,2.4,3.4,3.2,4.9,5c-0.4,0.4-0.8,0.8-1.2,1.1c-5-4-4.4,3.5-7.3,3.6
		c-2.2-2.7-4.5-5.3-7.4-7.3c0-0.4-0.1-0.8-0.2-1.1c0-1.6,0-3.3,0-4.9c0.8-0.5,1.6-0.9,2.4-1.4C128.3,197,129.9,199,132.4,198.7z"/>
	<path class="st7" d="M119.2,357c3.1,2.6,3.2,6.2,3.6,9.8c-5.8,0-10.2-3.5-15-6c0.8-2.2,3.2-0.9,4.1-2.4c1.7-1.5,1.3-3.5,1.3-5.4
		c2.2,0.4,3.4,3.2,6,2.7c0,0-0.1,0-0.1,0C119.2,356.1,119.2,356.6,119.2,357z"/>
	<path class="st4" d="M227.6,465c-8.5-1.7-14.2-6.9-17.6-14.8c0.8-0.8,1.6-1.6,2.4-2.4C218.6,452.6,223.3,458.6,227.6,465z"/>
	<path class="st14" d="M237,350.8c-4.1,0.2-7.1-0.5-5.4-5.9c0.7-2.4-3.2-5.8-0.4-7c2.9-1.2,6.7,0.7,9.5,3c-0.1,1.7,0.4,3.6-1.2,4.9
		c-0.9,0.6-1.2,1.5-1.2,2.5c0,0.4,0,0.7,0,1.1C237.9,349.9,237.4,350.4,237,350.8L237,350.8z"/>
	<path class="st11" d="M160.5,380.3c-1.4,0.3-2.7,0.5-4.1,0.8c-3.9,1-5.7-0.4-5.3-4.5c1.6-4,0.2-8.9,3.7-12.4
		c2.2,2.5-0.4,7.4,4.3,8.7C159.5,375.5,160,377.9,160.5,380.3z"/>
	<path class="st14" d="M277.5,247.6c-2.9,0.6-5.3,3.3-8.6,2.5c-0.4-0.8-0.8-1.6-1.2-2.4c0.4-0.7,0.8-1.4,1.1-2.1
		c1.1-2.4-2.2-6.2,0.4-7.1c3-1,6.7,0.7,9.5,3C278.9,243.7,278.7,245.8,277.5,247.6z"/>
	<path class="st10" d="M278.7,108.5c-3.1,1.2-6.7,0.6-9.6,2.5c-2.7-0.1-3.7,2.9-6.1,3.3c-0.1-1-0.1-1.9-0.2-2.9
		c1.9-2.8,6.2-4.1,4.9-8.7C273.8,100.7,277,102.4,278.7,108.5z"/>
	<path class="st5" d="M308.2,139.8c0-2.9,0-5.8,0-8.7c2.5-1,4.9-0.9,7.4,0c0,2.7-0.3,5.7,3.6,6.2c0.4,0.8,0.9,1.6,1.3,2.4
		c-1.7,1.8-5.5,0.1-6.1,3.7C311.8,143,310.2,141.2,308.2,139.8z"/>
	<path class="st12" d="M129,36.6c1.8-1,7,2.4,4.9-3.7c2.4,0,4.9-0.3,6.2,2.4c0.4,2.8,1.5,5.2,4.2,6.5c-0.3,0.9-0.7,1.8-1,2.7
		c-2.2-0.1-2.9,2.1-4.4,2.9C137.4,42.1,131.6,40.7,129,36.6z"/>
	<path class="st7" d="M123,367.9c0.8,0,1.6,0,2.4,0.1c-0.3,2.4,1,3.6,3,4.6c2.2,1,4.2,2.4,4.2,5.3c-0.8,0.7-1.5,1.5-2.3,2.2
		c-0.5,0.5-0.9,0.9-1.4,1.4c-0.4,0-0.8-0.1-1.1-0.1c-0.1-2,0.7-4.1-0.8-5.9c-5.9-5.5-12.5-6.5-19.8-3.3c-2.5-5.3,3.3-3.4,4.7-5.3
		c2.7,0.8,5.4,1.6,8.1,2.4C121.2,369.6,122.7,370.2,123,367.9z"/>
	<path class="st12" d="M70.2,186.2c-5.7-1.2-11.5-2.5-17.2-3.7c-0.4-1.6-0.8-3.1-1.3-4.7c4.1,0.8,8.1,1.5,12.2,2.3
		c2.6,0.1,5.2-0.2,7.5,1.5C71,183.1,70.6,184.7,70.2,186.2z"/>
	<path class="st3" d="M267.7,102.8c1.3,4.6-3.1,5.9-4.9,8.7c-2.8-0.1-3.9-2.8-6.1-3.7c0-1.2,0-2.5,0-3.7
		C260,100.1,263.5,98.7,267.7,102.8z"/>
	<path class="st12" d="M121.6,62.3c0-0.4,0-0.8,0-1.2c1.7-1.8,0.1-5.5,3.7-6.2c4.1,1.3,3.7,8.4,9.6,7.3c0.1,0.9,0.1,1.7,0.2,2.6
		c-3.7,0.8-7.3,1.5-11,2.3C123.9,65.3,124.7,62.8,121.6,62.3z"/>
	<path class="st7" d="M54.5,281.9c0.5,3.9-1.9,7-3.2,10.3c-1.1,2.6-4.6-0.1-7,0.7c0.4-2.9,0.8-5.7,1.3-8.6c1.3-1.5,2.8-2.6,5-2.3
		C51.9,282,53.2,282,54.5,281.9z"/>
	<path class="st0" d="M113.2,353.1c0,1.9,0.4,3.9-1.3,5.4c-0.8-1.3-1-3.1-2.9-3.6c-6.6-1.9-9.8-6.5-10.5-13.2
		C103.4,345.5,108.3,349.3,113.2,353.1z"/>
	<path class="st10" d="M307,255.1c-3.1,7.3-5.9,14.8-14.7,17.2l0,0c2.9-6.9,8.2-12.3,12.2-18.4C305.3,254.2,306.2,254.6,307,255.1z"
		/>
	<path class="st4" d="M126.9,375.5c1.5,1.8,0.7,3.9,0.8,5.9c-5.4,0.9-8.8,6.1-14.4,6.3C116.1,381.7,119.6,376.5,126.9,375.5z"/>
	<path class="st4" d="M45.6,284.4c-0.4,2.9-0.8,5.7-1.3,8.6c-4.3,2.2-8.7,1.6-13.2,0.9c0.3-0.6,0.7-1.2,1-1.9
		c3.4-0.3,7,0.6,10.3-1.8c-2-1.5-4.3-1.4-5.4-3.2c1.9-0.1,3.8-0.3,5.9-0.4c-0.3-3.2-3.5-4.9-2.9-8c0.6,0,1.2-0.1,1.8-0.1
		C43.1,280.5,44.3,282.4,45.6,284.4z"/>
	<path class="st4" d="M249.3,412.2c-3.1-0.7-4.9,5.8-7.5,2.2c-2.2-3,3-5,3.8-8c0.6-2,3.7-2.5,3.7-5.2c1.4-0.8,2.9-1.5,4.6-1.4
		C254.3,404.6,248.7,407.2,249.3,412.2z"/>
	<path class="st5" d="M173.3,85.6c-8.6,3.5-9.6,2.7-10.1-8c1.7-0.5,3.4-0.9,5.1-1.4c1.6,2.4,2.2,5.4,4.8,7.1
		C173.3,84,173.3,84.8,173.3,85.6z"/>
	<path class="st14" d="M138.9,207.1c0.4-0.4,0.8-0.8,1.2-1.1c4.5-0.4,6.5,3.2,8.7,5.9c2.4,2.9,0.1,3.8-2.6,3.9c-1.2,0-2.5,0-3.7,0
		C140.7,213.1,138,210.9,138.9,207.1z"/>
	<path class="st10" d="M99.5,66.1c5.1-2.9,10.4-3.7,16-1.3c-2.9,1.7-6.1,2.7-9,4.5C103.8,70.9,99.4,72.3,99.5,66.1z"/>
	<path class="st12" d="M181.8,51.2c-1-0.6-0.8-1.5-0.8-2.5c0.3-1.3,0.6-2.7,0.9-4c0.5-3.1,3.2-4,5.4-5c2.3-1,3.3,1.4,4.4,3
		c-2.1,2-4.2,4-6.3,6.1C183.7,48.9,182.5,49.7,181.8,51.2z"/>
	<path class="st7" d="M175.1,323.9c-0.7,1.4-1.7,2.1-3.2,1.1c-1.3-5.6-1.3-11.4-1-17.1c1.2,0,2.4,0,3.7-0.1
		C174.7,313.2,174.9,318.5,175.1,323.9z"/>
	<path class="st0" d="M95.9,339.7c-1.4,0.1-2.8,0.2-4.2,0.3c-3.2-2.9-6.3-5.8-9.4-8.7c0.2-1.1,0.4-2.1,1.5-2.7
		C88.1,332,92.3,335.6,95.9,339.7z"/>
	<path class="st10" d="M53.2,268.8c-1.3-3.4-2.6-6.7-4-10.1c0-2.9,0-5.7,0-8.6c4.4,1.9,1.6,7.4,4.9,9.8c2.3,3.1,1,6.1-0.2,9.1
		C53.7,268.9,53.4,268.9,53.2,268.8z"/>
	<path class="st10" d="M205.2,20.6c-0.2-2,0-4.7-2.8-4.4c-6.2,0.7-7.4-3.3-8.3-7.9c3.8,2,7.7,3.9,11.4,6.1
		C208.6,16.4,208.7,18.7,205.2,20.6z"/>
	<path class="st12" d="M310.7,183.9c1.2,2,2.5,4.1,3.7,6.1c-0.8,3.2,2.7,4.8,3.4,8.5c-5.6-2.3-7.8-6.5-9.6-11c0-1.6,0-3.2,0-4.8
		C309.7,181.5,309.7,183.8,310.7,183.9z"/>
	<path class="st4" d="M53.2,268.8c0.3,0.1,0.5,0.1,0.8,0.2c1,4.3,2.1,8.5,0.5,12.9c-1.3,0-2.6,0.1-4,0.1
		C49.9,277.3,49.7,272.7,53.2,268.8L53.2,268.8z"/>
	<path class="st7" d="M83.8,328.5c-1.1,0.6-1.3,1.6-1.5,2.7c-4.6-4.1-9-8.3-12.5-13.4c0.5-0.5,1-1,1.6-1.5
		C76.2,319.8,79.9,324.3,83.8,328.5z"/>
	<path class="st10" d="M235.8,181.4c4.8,0.5,5.2-6.2,9.8-6.1c0.2,2.7-0.4,5.2-2.1,7.5C240.2,187.2,238.4,186.9,235.8,181.4z"/>
	<path class="st12" d="M175.7,32.9c1.9-0.2,2-4.1,4.9-2.4c0,1.2,0,2.5,0,3.7c-3.1,2.8-2.2,7.5-4.9,10.5c-3.2,1-2-1.8-2.6-3
		C175.3,39.1,174.4,35.6,175.7,32.9z"/>
	<path class="st10" d="M124.1,203.5c2.9,2,5.2,4.5,7.4,7.3c0.4,0.8,0.8,1.7,1.2,2.5c-1.4,1.5,1.1,3.6-1,5.4
		C128.1,214.1,124.8,209.5,124.1,203.5z"/>
	<path class="st7" d="M250.5,444.1c4.5-1.3,8.1,1.4,11.8,3c1.9,0.8,3.5,2.1,5.7,1.8c0.7,3.8-1.5,3.5-3.8,2.4
		C259.6,449,255.1,446.5,250.5,444.1z"/>
	<path class="st11" d="M137.5,348.3c-2.7,0.7-4.9,1.7-4.1,5.2c0.5,2-0.5,3.4-1.8,4.7c-0.8-0.4-1.7-0.8-2.5-1.2c0-2.1,0-4.2,0-6.3
		c3.2,0.4,2.9-2.8,4.4-4.2c0.9-0.8,1.6-2,3-1.3C137.7,345.7,137.7,347.1,137.5,348.3z"/>
	<path class="st11" d="M171.9,372.9c1.1,0,2.1,0.1,3.2,0.1c0.2,4.2,0.6,8.4-0.2,12.6c-1.8,2.8-2.7-1.6-4.3-0.6
		C172.4,381.2,171,376.9,171.9,372.9z"/>
	<path class="st3" d="M272.6,354.5c4.9-0.4,9.8-0.8,14.7-1.2C282,359.4,277.4,359.8,272.6,354.5z"/>
	<path class="st1" d="M159.1,373c-4.6-1.3-2.1-6.2-4.3-8.7c0.5-1.9,1.6-3.7,3.6-3.3c2,0.4,1.3,2.7,1.3,4.2
		C159.6,367.8,159.3,370.4,159.1,373z"/>
	<path class="st0" d="M62.6,309.4c-3.3-3.3-6.5-6.8-8.8-11c0.2-0.8,0.3-1.6,0.5-2.5c3.8,3.5,6.9,7.6,9.7,11.9
		C63.6,308.3,63.1,308.8,62.6,309.4z"/>
	<path class="st3" d="M54.2,260c-3.3-2.4-0.5-7.9-4.9-9.8c0-1.2,0-2.4,0-3.7c1.3-1.7,3-1.8,4.9-1.2C54.1,250.1,54.2,255.1,54.2,260z
		"/>
	<path class="st5" d="M134.9,62.3c-5.9,1.1-5.6-6-9.6-7.3c3.4-0.1,6.9-0.5,9.6,2.4c0.2,1.7,0.4,3.3,0.5,5L134.9,62.3z"/>
	<path class="st2" d="M314.5,287c0.1-2,1.4-2.7,2.9-2.3c2.2,0.6,5.6,0.4,5.9,3.1c0.2,2.5-2.7,1.5-4.3,1.5
		C317.1,289.5,314.8,289.9,314.5,287z"/>
	<path class="st10" d="M315.6,269.8c-2.4-0.3-3.7-2.1-3.1-4.1c0.7-2.6,3-3.4,5.6-3.3C320.4,265.9,317.9,267.8,315.6,269.8z"/>
	<path class="st11" d="M62.6,309.4c0.5-0.5,1-1.1,1.5-1.6c3,2.4,5.5,5.2,7.2,8.6c-0.5,0.5-1,1-1.6,1.5
		C67,315.4,64.4,312.7,62.6,309.4z"/>
	<path class="st12" d="M308.2,139.8c1.9,1.4,3.6,3.2,6.1,3.5c2.1,1.2,4.1,2.5,6.2,3.7c0,0.4-0.1,0.9-0.1,1.3
		c-5.4,0.4-8.7-4.8-13.9-5.2C306.8,141.9,306.9,140.5,308.2,139.8z"/>
	<path class="st11" d="M253.9,399.8c-1.7-0.2-3.2,0.6-4.6,1.4c-0.4-0.4-0.8-0.8-1.2-1.2c3.1-3.3,6.8-5.8,11-7.4
		C258.4,395.6,256,397.6,253.9,399.8z"/>
	<path class="st1" d="M212.4,447.9c-0.8,0.8-1.6,1.6-2.4,2.4c-3.1-2.1-4.3-5.7-6.5-8.5c-0.7-0.9-0.6-2,0.8-2.2
		c1.2-0.2,1.8,0.6,1.9,1.8C206.9,444.7,210.4,445.6,212.4,447.9z"/>
	<path class="st13" d="M300.6,118.2c-2.8-2.2-5.6-4.4-8.4-6.6c4.8,0.2,8.7,1.7,10.1,6.9C301.8,118.3,301.2,118.3,300.6,118.2z"/>
	<path class="st13" d="M135.4,62.3c-0.2-1.7-0.4-3.3-0.5-5c0.4-1.5,0.7-2.9,1.1-4.4c1-1.7,2-3.3,2.9-5c-0.2,2.2,0,4.4,0.8,6.5
		c0.7,1.9,0.4,3.6-1.9,4.2c-0.3-0.7-0.6-2.4-1.3-0.3C136,59.7,136.5,61.2,135.4,62.3z"/>
	<path class="st7" d="M170.8,301.7c1.7-1.8,1-4.1,1.1-6.3c0.2-1.9-0.5-4.2,2.4-4.7c0.1,4.5,0.1,9,0.2,13.5c-1.2,0-2.4,0-3.6,0
		C170.9,303.3,170.8,302.5,170.8,301.7z"/>
	<path class="st14" d="M320.5,147c-2.1-1.2-4.1-2.5-6.2-3.7c0.6-3.7,4.4-2,6.1-3.7c1.5,2.3,1.3,4.8,1.3,7.3
		C321.3,147,320.9,147,320.5,147z"/>
	<path class="st13" d="M143.3,44.4c0.3-0.9,0.7-1.8,1-2.7c1.9-0.5,3.7-1,5.6-1.5c0.8,3-1.6,4.8-2.5,7.1l-0.1,0.1
		C145.2,47.4,144.1,46.1,143.3,44.4z"/>
	<path class="st12" d="M319.2,137.3c-3.8-0.6-3.5-3.5-3.6-6.2c0.8-0.4,1.6-0.8,2.4-1.2C322.4,131.7,320.3,134.6,319.2,137.3z"/>
	<path class="st12" d="M173.2,83.2c-2.7-1.7-3.2-4.7-4.8-7.1c1.1-0.3,2.3-0.5,3.4-0.8C173.2,77.8,173.4,80.4,173.2,83.2z"/>
	<path class="st10" d="M54.1,245.2c-1.9-0.6-3.6-0.5-4.9,1.2c-1.2-1.1-2.1-2.3-1.7-4.5C49.9,242.9,53.1,241.5,54.1,245.2z"/>
	<path class="st10" d="M190.4,10.8c-0.3,3.3-0.8,6.6-4.9,7.4C186.2,15.1,187.8,12.6,190.4,10.8z"/>
	<path class="st2" d="M142.5,215.8c1.2,0,2.5,0,3.7,0c0,2.3-0.2,4.3-2.9,5.1C141.9,219.3,142.8,217.4,142.5,215.8z"/>
	<path class="st9" d="M307.1,130.8c-0.4,0-0.9-0.1-1.3-0.1c-0.4-2.3-0.9-4.7-1.3-7c0.2-0.2,0.3-0.3,0.5-0.5
		C306.4,125.6,308.3,127.7,307.1,130.8z"/>
	<path class="st4" d="M170.9,304.1c1.2,0,2.4,0,3.6,0c0,1.2,0,2.4,0.1,3.6c-1.2,0-2.4,0-3.7,0.1
		C170.9,306.6,170.9,305.4,170.9,304.1z"/>
	<path class="st10" d="M243.2,338.5c0.8-0.4,1.6-0.8,2.4-1.3c0.1,1.8,0,3.5-2.3,3.8C243.2,340.2,243.2,339.3,243.2,338.5z"/>
	<path class="st7" d="M54.4,295.9c-0.2,0.8-0.3,1.6-0.5,2.5c-0.9-1.3-3.1-2.3-1.5-4.1C52.9,293.6,53.9,295,54.4,295.9z"/>
	<path class="st10" d="M6.3,278.4c1.6-0.7,3.3-1.9,3.7,1.2C8.6,279.6,7.2,279.7,6.3,278.4z"/>
	<path class="st4" d="M175.1,397.7c-2.1-0.9-2.3-1.9-0.1-2.9C175,395.7,175.1,396.7,175.1,397.7z"/>
	<path class="st13" d="M153.4,38.5c0.1,1.4,0.1,2.9,0.2,4.3c0,0.3-0.1,0.7-0.2,1c-1.3-1.1-1.1-2.6-1.3-4
		C152.6,39.3,153,38.9,153.4,38.5z"/>
	<path class="st2" d="M238.3,348.4c0-1,0.3-1.9,1.2-2.5C239.1,346.7,238.7,347.6,238.3,348.4z"/>
	<path class="st10" d="M147.4,84.4c0.4-0.4,0.9-0.7,1.3-1.1c0,0.3,0,0.7,0,1C148.3,84.4,147.8,84.4,147.4,84.4z"/>
	<path class="st2" d="M237,350.8c0.4-0.4,0.8-0.9,1.2-1.3C237.9,349.9,237.4,350.4,237,350.8z"/>
	<path class="st14" d="M249.3,273.5c2-4.9,1.9-9.8,0.2-14.8c4.3,0.1,8.5,1,12,3.6c0,0,0.2,0,0.2,0c-2.1,3.8-1.1,8-1.5,12.1
		c-0.7-0.1-1.5-0.1-2.2-0.2C255.2,272.6,252.2,273.9,249.3,273.5z"/>
	<path class="st10" d="M241.9,259.9c-0.8,2.5-0.7,5.3-2.4,7.5c-1.9-0.8-4.1-2.6-5,1.2c-0.4,0.4-0.8,0.8-1.2,1.2
		c-2.3-0.2-2.5-1.8-2.5-3.6c0.2-3.9,3.7-5.9,5.4-8.9C237.6,255.2,241.7,255.1,241.9,259.9z"/>
	<path class="st15" d="M230.9,266.2c0,1.8,0.2,3.4,2.5,3.6c0.4-0.4,0.8-0.8,1.2-1.2c0.8-3.8,3-2,5-1.2c-5.5,6.6-8.2,6.6-17.3,0
		c-1-0.1-2-0.3-2.7-1.8c3.1-1.2,6,2.5,9,0.6C229.3,266.1,230.1,266.2,230.9,266.2z"/>
	<path class="st12" d="M267.7,247.7c0.4,0.8,0.8,1.6,1.2,2.4c0.9,1.5,1.4,3.1,1.3,4.9c-0.8,0-1.6,0-2.4,0c-1.2,0-2.5,0-3.7,0
		c0-0.8,0-1.6-0.1-2.4C265.3,251,264.6,248,267.7,247.7z"/>
	<path class="st15" d="M264.1,252.6c0,0.8,0,1.6,0.1,2.4c-0.8,2.5,1.5,5.9-2.4,7.3c0,0-0.2,0-0.2,0c0.6-2.1,1.4-4.1,0.1-6.3
		C259.8,253.2,261.6,252.6,264.1,252.6z"/>
	<path class="st15" d="M226,257.5c-0.4-0.8-0.8-1.7-1.3-2.5C225.7,255.6,225.9,256.5,226,257.5z"/>
	<path class="st15" d="M227.2,258.7c-0.4-0.4-0.8-0.8-1.2-1.2C226.4,257.9,226.8,258.3,227.2,258.7z"/>
	<path class="st14" d="M143.7,155.6c1.7,0,3,0.3,3.7,2.3c1.9,5.4,6.1,6.9,11.5,4.3c1.6-0.7,3.6-3.2,4.5,0.8
		c-0.4,0.4-0.8,0.8-1.2,1.2c-0.4,0.4-0.9,0.8-1.3,1.2c0,0,0,0,0,0c-1,0.2-2,0.3-2.8,0.8c-1.3,0.7-3.8-0.2-3.8,1.9
		c0,2.4,2.4,2.1,4.1,2.2c0,0,0,0,0,0c-3.9,3.8-9.6,2.9-13.9,5.6c-1.2,0.8-4,0.9-2.4,3.1c4.1,5.4-0.1,5.8-3.6,6.8
		c-1.5,0.4-3.2,0.8-3.4,2.9c-0.4,0-0.8,0-1.3,0c-0.8-0.1-1.6-0.1-2.4-0.2c0.4-6.6,1.8-13.6-6-17.4c0-0.7,0-1.3,0-2
		c0.4,0,0.7-0.1,1.1-0.1c5.1-3.8,12.1-5.4,14.8-12.2C142.1,156.4,142.9,156,143.7,155.6z"/>
	<path class="st14" d="M106.9,161.2c0-1.4,0-2.9,0.1-4.3c1.3,2.8,3,3.7,4.7,0.6c1.8-3.2,4.3-6.3,3.8-10.4c6.2,2.1,6.2,2.1,11.6-2.9
		c3.1-2.9,6.6-2.2,8,1.6c-8.3,1.7-12.2,7.5-9.9,14.7c0,0.8,0,1.6,0,2.4c-2.3,0.3-2.8,2.3-3.7,3.9c-1.8-1.5-3.5-3.1-6-3.5
		C112.1,165.1,109.7,162.4,106.9,161.2z"/>
	<path class="st15" d="M125.2,160.6c-2.3-7.2,1.6-13,9.9-14.7c0.5,0.2,1.1,0.7,1.5,0.6c1.4-0.2,1.6-3.5,3.7-1.7
		c1.4,1.2,0.8,3,0.3,4.6c-0.2,0.7-0.4,1.5-0.6,2.5c3.6,1.4,4.7-3,8-3.1c0,3.4-3.6,4.4-4.4,6.9c-0.8,0.4-1.6,0.8-2.4,1.2
		C136,158.1,131.2,161.9,125.2,160.6z"/>
	<path class="st15" d="M115.5,147.1c0.5,4.1-2,7.2-3.8,10.4c-1.7,3.1-3.5,2.2-4.7-0.6c-1.1-4.1-1.1-8.2-0.1-12.3
		c0.4-2,0.9-3.9,1.3-5.9c0.5-2.4-1.4-7.6,4.5-4c0,0,1-1.5,1.6-2.3C114.6,137.2,116.1,142.1,115.5,147.1z"/>
	<path class="st15" d="M162.2,164.2c0.4-0.4,0.8-0.8,1.2-1.2c1.1-0.8,2.2-1.7,3.3-2.5c0,3.7,0.1,7.4,0.1,11.1
		c-2.8-0.4-5.6-0.9-8.4-1.3c0,0,0,0,0,0c0.7-1.7,2.6-2.8,2.5-4.9c0,0,0,0,0,0C161.4,165.1,161.8,164.6,162.2,164.2z"/>
	<path class="st15" d="M165.9,150.7c0.1,0.4,0.1,0.8,0.2,1.2C165.2,151.6,165,151.3,165.9,150.7z"/>
	<path class="st15" d="M151.1,148.2c-0.1,0.1-0.2,0.3-0.2,0.4C151,148.5,151,148.4,151.1,148.2C151.1,148.3,151.1,148.2,151.1,148.2
		z"/>
	<path class="st10" d="M71.4,181.6c-2.3-1.6-4.9-1.3-7.5-1.5c1.2-3.7,3.7-1.9,5.9-1.5c1.5,0.3,3.7,1.1,4.3-0.7
		c0.8-2.3-1.9-2.6-3.3-3.4c-1.4-0.7-3.3-0.2-4.4-1.7c0.1-0.1,0.2-0.3,0.2-0.4c-0.1,0.1-0.2,0.3-0.2,0.4c-2.1,0.1-4.1,0-5.9-1.2
		c-1.2-0.8-3.8-0.9-2.7-3.2c0.8-1.6,1.9-4,4.5-2.7c2.4,1.2,3.8,0,5.3-1.5c0.4,0,0.8,0,1.2,0h0c4.2,2.7,7.9,6.6,13.5,6.1
		c3-0.3,3.9-1.6,2.8-4.5c-1.1-2.8-3-4.8-5.2-6.6c4.4-4.3,2.4-9.3,1.4-14.1c-0.3-1.6-1.1-3.1-1.4-4.6c-0.2-0.9-0.2-2.2,1-2.6
		c1.2-0.4,1.8,0.6,2.4,1.4c2,3.1,3.9,6.2,5.9,9.2c1.1,1.7,0.9,4.9,5,3.2c2.2-0.9,2.9,2.4,2.3,4.4c-0.6,2.2-0.8,4.4-0.8,6.6
		c-0.8,0.9-1.7,1.8-2.5,2.6c0,0,0,0,0,0c-4.1,3.2-8.8,6-8.6,12.2c-1.9,1.2-0.9,3.1-1.3,4.7c-0.4,0-0.7,0.1-1.1,0.2
		c-1.9-1.6-4.1-1-6.3-0.9C74.6,181.6,73,181.6,71.4,181.6z"/>
	<path class="st9" d="M106.9,161.2c2.8,1.2,5.2,3.8,8.7,2c-0.4,1.1-0.9,2.2-1.3,3.4c-3.1,3.8,0.4,7.4,0.5,11
		c0.3,6.7,2.1,7.3,7.7,3.4c0.6,0.5,1.3,1,1.9,1.4c-0.1,0.5-0.2,1-0.3,1.5c-0.2,0.1-0.3,0.1-0.5,0.2c0.1,0.2,0.3,0.5,0.4,0.7
		c0,0.5-0.1,0.9-0.1,1.4c-4.4,3-8.4,1.3-12.2-1.3l0,0c-0.4-0.4-0.8-0.8-1.3-1.2c-3.3,0-6.6,0-9.9,0c-2.1,0-4.1-0.1-6.2-0.1
		c-1.4-0.1-2.8,0.1-3.9-1.1c-1-3.1-2.6-7.5,0-8.9c4.4-2.4,3-5.3,2.7-8.4c0,0,0,0,0,0c3.2,0.6,6,3,9.5,2.6c0.7,2,1.4,3.9,2.1,5.9
		c0.1-2.7,4.7-6.6-1.7-7.5c-0.4-1.5-0.8-3-1.3-4.5C103.6,161.6,105.2,161.4,106.9,161.2z"/>
	<path class="st15" d="M82.4,170.4c-5.6,0.5-9.3-3.5-13.5-6.1c2.8,0.1,4-0.9,3-4c-0.6-2.2-3.1-4.5-0.6-7.1c0.8,0.8,1.6,1.7,2.5,2.5
		c-0.3,3.2,0.2,5.7,3.2,7.7C79.5,164.9,81.3,167.5,82.4,170.4z"/>
	<path class="st5" d="M82.4,170.4c-1.1-2.9-2.9-5.4-5.3-7.1c-3-2-3.6-4.5-3.2-7.7c2,1.2,4.1,2.4,6.1,3.7c2.2,1.8,4.1,3.8,5.2,6.6
		C86.2,168.7,85.3,170.1,82.4,170.4z"/>
	<path class="st6" d="M102,161.8c0.4,1.5,0.8,3,1.3,4.5c-0.1,0.5-0.3,1.1-0.4,1.6c-3.5,0.5-6.3-2-9.5-2.6c0.8-0.9,1.7-1.8,2.5-2.6
		C97.9,162.4,99.9,162.1,102,161.8z"/>
	<path class="st15" d="M269,267.3c2,0.8,4.1,1.6,6.1,2.5c0.4,1.6,0.8,3.3,1.2,4.9c-0.1,0.2-0.2,0.3-0.2,0.5c0.1-0.2,0.2-0.3,0.3-0.5
		c3.7-1.7,6.4-0.7,7.6,2.9c1.7,5,1.6,5.1-5.8,10.4c1.5,1.4,3,2.6,4.4,3.9c-2.6,1.2-5.2,2.4-7.7,3.5c0.1-2.4,0.2-4.8-1-7.1
		c0.1-0.7,0.2-1.4,0.3-2.1c-0.8,0.2-1.7,0.4-2.5,0.6c-0.9-5.5-5.9-8-8.9-11.9C265.6,273.2,266.4,269.5,269,267.3z M279.9,282.7
		c0.5-0.4,1.5-0.9,1.8-1.7c0.4-0.9-0.6-1.3-1.4-1.2c-1.1,0.1-1.9,0.7-2.1,1.7C277.9,282.5,278.6,282.8,279.9,282.7z"/>
	<path class="st10" d="M297.3,277.7c-1.6,5.4-5.2,5.8-7.7,7.4C290,281.2,293.4,280.4,297.3,277.7z"/>
	<path class="st10" d="M287.8,276.6c-0.1,0.1-0.3,0.2-0.4,0.2c-0.1,0-0.2-0.2-0.3-0.3C287.2,276.5,287.5,276.5,287.8,276.6z"/>
	<path class="st10" d="M292.3,272.2c-0.1,0.1-0.2,0.3-0.3,0.4C292.1,272.5,292.2,272.4,292.3,272.2
		C292.3,272.2,292.3,272.2,292.3,272.2z"/>
	<path class="st15" d="M214.8,301.5c5-1.4,4.6-1.3,9.6-2.6c3.3,5.4,7.1,10.3,12.4,13.9c0.1,0.1,0.2,0.2,0.2,0.4
		c-0.5,2.3-2.1,3.9-3.5,5.7c0,0-0.1,0.1-0.1,0.1c-0.9,0.5-1.2,1.4-1.2,2.4l0,0.1c-4.7,0.9-5.8,4.3-6.2,8.4c0,0.1-0.1,0.2-0.1,0.2
		c-7.7,6.7-10.4,15.4-9.7,25.3c0,0.2-0.2,0.4-0.4,0.4c-4.5-0.1-6.7,4.6-11.5,5.9c-0.3,0.1-0.5-0.2-0.4-0.5
		c4.3-11,8.3-21.5,12.4-31.9c0,0,0-0.1,0-0.1c2.1-3,7.2-3.9,6.1-9.4c-0.5-2.8-1.9-2.3-3.4-2.2c-0.2,0-0.4-0.2-0.4-0.4
		c0-2.3-2.9-4.6-0.1-6.9c1.4-1.4,1.5-3.8-0.6-3.3c-8.4,2.3-3.2-2.9-3.2-5.2C214.8,301.7,214.8,301.6,214.8,301.5z"/>
	<path class="st10" d="M218.6,310.3c-3,2.5,0.4,4.9,0.1,7.3c0,0-0.1,0.1-0.1,0.1c-0.4,0-0.7,0-1.1,0c-2.3-1.1-6,3.5-7-0.9
		c-0.9-4.1,3.1-5.4,6.4-6.4C217.4,310.2,218,310.3,218.6,310.3z"/>
	<path class="st15" d="M217.4,317.7c0.4,0,0.7,0,1.1,0C218.2,318.3,217.8,318.3,217.4,317.7z"/>
	<path class="st15" d="M153,205c2.4-1,5.1-1.7,7.2-3.2c2.4-1.7,5.8-3.4,5.2-6.9c-0.6-3.4-3.9-4.4-7-5c2.7-2.4,6.1-3.7,9.4-5
		c0.5,20.9,2.4,41.8,1.6,62.7c-0.3-0.1-0.5-0.1-0.8-0.1C165.8,232.5,159.7,218.7,153,205z"/>
	<path class="st3" d="M167.8,185c-3.3,1.3-6.7,2.6-9.4,5c-0.4,0-0.8,0-1.2,0c-0.4,0-0.8,0-1.2-0.1c-0.1-1.8-1.2-3.3-0.6-5.2
		c0.5-1.6-0.9-2-2.1-2c-0.7,0-1.4,0.4-2.1,0.6c3.6,4.9-4,3.5-3.7,6.6c-4.2,0.7-8-2.7-12.3-1.1c0.1-2.1,1.8-2.5,3.4-2.9
		c3.6-1,7.8-1.4,3.6-6.8c-1.6-2.1,1.2-2.3,2.4-3.1c4.3-2.7,10-1.9,13.9-5.6c2.8,0.4,5.6,0.9,8.4,1.3
		C167.3,176.1,169.3,180.4,167.8,185z"/>
	<path class="st5" d="M168.6,247.5c0.3,0,0.5,0.1,0.8,0.1c1.3,0.9,1.4,2.2,0.8,3.7C168.7,250.4,168.4,249.1,168.6,247.5z"/>
	<path class="st14" d="M282.6,167.9c0-1.2,0-2.4,0-3.6c0-5,1.3-8.9,7.4-8.7c0.8,1.7,2,3,3.9,3.5c6.4,1.7,9.3,6.5,10.7,12.4
		c-1.7,0.3-2.8,3.6-5,0.8c-3.4-4.3-7.4-6.1-12.8-3.4c-0.8,0.4-2,0.1-3,0.2C283.3,168.7,282.9,168.3,282.6,167.9z"/>
	<path class="st15" d="M304.5,171.6c-1.5-6-4.3-10.7-10.7-12.4c-1.8-0.5-3-1.8-3.9-3.5c3.5-2.4,6.4,2.9,10.2,0.9
		c1-0.5,2.7,1.1,4.9,0.2c3.4-1.5,2.9,1.9,3.4,3.8c-1.2,8,2.9,15.4,2.3,23.3c-1,0-0.9-2.4-2.5-1.1C302.6,180.4,306.6,175,304.5,171.6
		z"/>
	<path class="st15" d="M282.6,167.9c0.4,0.4,0.8,0.8,1.1,1.2c-0.4,0-0.7,0-1.1,0.1C282.6,168.8,282.6,168.4,282.6,167.9z"/>
	<path class="st15" d="M211.4,294.1c-1.6,0.2-2.4-0.6-2.8-2C210.2,291.9,211.1,292.7,211.4,294.1z"/>
	<path class="st14" d="M273.9,314c0.4,0,0.9,0,1.3,0c3.4,2.3,7.3,0.5,10.9,1.2c1.2,0.8,2.5,1.6,3.7,2.5c-1.2,4.6-2.1,9.4-8.8,8.7
		c-3.3-0.4-3.7,1.6-2.5,4.3c0.8,1.8,2.7,3.1,2.7,5.4c-0.4,0-0.9,0.1-1.3,0.1c-2.6-1.2-4.7-3-6.8-4.9c-4.5-4.4-3.4-7.8,3.1-9.8
		c0.2,0.1,0.3,0.1,0.5,0.2c-0.1-0.1-0.3-0.2-0.4-0.3c0-1.9-0.3-3.8-2.3-4.8C274.1,315.7,274,314.9,273.9,314z"/>
	<path class="st10" d="M289.8,317.7c-1.2-0.8-2.5-1.6-3.7-2.5c0.8-0.4,1.6-0.8,2.5-1.2c3.4,2.2,6.2,2.9,7.6-2.2
		c0.5-1.8,2.1-1.5,3.4-0.5C299.6,319.2,299.6,319.2,289.8,317.7z"/>
	<path class="st15" d="M279.9,336.1c0.4,0,0.9-0.1,1.3-0.1c0,0.8,0.1,1.5,0.1,2.3c0,0-0.1,0.2-0.1,0.2
		C280.8,337.7,280.4,336.9,279.9,336.1z"/>
	<path class="st10" d="M175.7,44.6c2.7-3,1.8-7.7,4.9-10.5c4.7-3.2,6.4-8.7,9.6-13.1c1.4-1.9,2.7-3.9,4.6-6.7
		c0.8,4.8-1.8,7.4-3.8,9.5c-4.1,4.5,0.3,8.3,0.3,12.4c0,1.7,2.3,0.2,3.2-0.7c2.5-2.5,3.8-6.3,8.2-8.1c-0.6,7.9-6.5,11.1-11.1,15.4
		c-1.1-1.6-2.1-4.1-4.4-3c-2.2,1-4.9,1.9-5.4,5c-0.2,1.3-0.6,2.7-0.9,4c-0.6-1.1-1.6-1.2-2.7-1.1C177.8,46.2,177,45.2,175.7,44.6z"
		/>
	<path class="st15" d="M270.3,179c1.5-5.9,5.9-10.8,6-17.3c0.3-0.3,0.5-0.6,0.8-0.9c-0.2-0.1-0.4-0.2-0.6-0.3
		c-0.1,0.4-0.1,0.8-0.2,1.2c-1,0.1-2.8,0.3-2.8,0.2c-0.7-5.6-6.9-4.5-9.4-7.8c1.2-1.9,2.6-3.4,5-3.6c3.3,0,6.6,0,9.9-0.1
		c1.2,0.8,1.4,2.2,1.5,3.5c-1.7,2.3-2.2,5-1.5,7.5C281.2,170.1,274.3,173.8,270.3,179z"/>
	<path class="st4" d="M280.4,154.1c-0.1-1.3-0.3-2.6-1.5-3.5c-0.5-1.2-0.9-2.4-1.4-3.6c3.5-0.3,6.9-0.5,9.8,1.8
		C287,153.2,284.2,154.3,280.4,154.1z"/>
	<path class="st15" d="M311.8,160.6c-0.3,0-0.7,0-1-0.1C311.2,159.9,311.5,159.9,311.8,160.6z"/>
	<path class="st15" d="M269.2,180.3c0.4-0.4,0.7-0.9,1.1-1.3C269.9,179.4,269.5,179.9,269.2,180.3z"/>
	<path class="st13" d="M168.3,62.3c-1.3,3-9.2,2.6-4.6,8.8c0.1,0.1-0.5,0.9-0.6,0.9c-2.6-1.3-4.3-0.9-7,0.8
		c-4.9,3.1-2.4-3.3-4.3-4.4c-0.8,1.1-1.2,3.8-3.2,1c-0.8-6.6,6.9-6.3,8.6-10.9c0.4-0.8,0.8-1.6,1.2-2.4
		C161,59.4,165.5,59.5,168.3,62.3z"/>
	<path class="st9" d="M147.3,47.4c1.9,1.2,3.3,2.8,1.8,5c-1.4,2.1-1.7,3.7-0.4,6c1.7,3.1-1.2,2.9-2.7,2.4c-3.7-1-1.9-4.8-3-7.2
		c-1-2.1,0.1-3.2,2.8-2.9c2.1,0.2,1.6-1.8,1.5-3.2C147.2,47.5,147.3,47.4,147.3,47.4z"/>
	<path class="st9" d="M153.4,43.8c0.1-0.3,0.2-0.7,0.2-1c2.2,0.1,3.4,1.2,3.5,3.4c0.1,2.3-1.4,3.8-2.7,5.3c-0.7,0.8-1.4,0.4-2-0.3
		c-1.5-1.7-0.8-3.4,0-5.1C152.8,45.3,153.1,44.5,153.4,43.8z"/>
	<path class="st9" d="M158.4,56.2c-0.4,0.8-0.8,1.6-1.2,2.4c-2.4-0.3-3.1-2.1-1.8-3.6C156.8,53.1,157.3,55.9,158.4,56.2z"/>
	<path class="st13" d="M170.5,60.9c-0.3,1.1-1.2,1.4-2.1,1.4C169,61.8,169.8,61.4,170.5,60.9z"/>
	<path class="st10" d="M245.7,126.1c-4.7-1.7-10,0.8-14.5-1.8c4.1-2.4,10.6,0.7,13.2-5.5c4.9-1,8.6,1.7,12.5,3.8
		c-0.4,0.8-0.7,1.7-1.1,2.5c-2.9,1.2-6,1.2-9,1.1c0,0,0,0,0,0C246.5,125.6,246.1,125.5,245.7,126.1z"/>
	<path class="st15" d="M256.9,122.6c-3.9-2.1-7.7-4.8-12.5-3.8c-1.7-1.6-4-1.9-6.1-2.5c3.1-2.2,7.5-0.5,10.5-4.4
		c1.9-2.4,4.6,3.2,7.9,2c-0.2,2.4,0.4,4.7,1.6,6.8C257.8,121.3,257.4,122,256.9,122.6z"/>
	<path class="st15" d="M246.9,126.2c3.1,0.1,6.1,0.1,9-1.1c0,3.1,0,6.3-0.1,9.4c-1.3,0.1-2.6,0.1-3.9,0.2c-2.2-5.2-6.1,0.5-8.8-1.4
		C241.6,129.5,247.8,129.7,246.9,126.2z"/>
	<path class="st15" d="M240.8,133.4c-1.4,0.2-2.8,0.3-3.8-1C238.9,130.5,240.1,131,240.8,133.4z"/>
	<path class="st15" d="M245.7,126.1c0.4-0.6,0.8-0.5,1.2,0.1C246.5,126.1,246.1,126.1,245.7,126.1z"/>
	<path class="st15" d="M41.8,278.5c-0.6,0-1.2,0.1-1.8,0.1c-5-4.7-6.3-10.9-6.8-17.4c0.9-0.4,1.7-0.9,2.6-1.3
		c0.4,1.2,0.9,2.4,1.3,3.6C40.9,267.8,40.5,273.5,41.8,278.5z"/>
	<path class="st15" d="M37,287c1.2,1.8,3.5,1.7,5.4,3.2c-3.4,2.4-7,1.4-10.3,1.8c0.4-2.1,0.8-4.2,1.2-6.3
		C34.6,286,36.7,283.9,37,287z"/>
	<path class="st11" d="M141.3,379c0.1-1.2,0.5-3,1.7-2.6c1.3,0.4,3.3,1.3,3.3,3.1c0,1-1.6,0.7-2.6,0.8c0,0,0,0,0,0
		C142.9,379.8,142.1,379.4,141.3,379C141.3,379,141.3,379,141.3,379z"/>
	<path class="st15" d="M228.5,329.9c0.4-2.1,0.7-4.3,3.7-2.4C231.4,329.1,230.2,329.9,228.5,329.9z"/>
	<path class="st5" d="M146.2,75.9c-0.8,2-1.6,4.1-2.5,6.1c0,0,0,0,0,0c-4.4,0.2-5.5-2.9-6.3-6.3c0.5-0.9,1-1.7,1.5-2.6
		C141.6,73.4,144,74.5,146.2,75.9z"/>
	<path class="st5" d="M159.6,77.6c-1.1,1-2.4,0.8-3.7,0.6C157,77.1,158.2,77.1,159.6,77.6z"/>
	<path class="st13" d="M304.6,123.7c0.4,2.3,0.9,4.7,1.3,7c0.9,5.9-4.6,12.8-10.4,13.1c-1.4,0.1-1.5-0.9-2.1-1.5
		c-3.1-3-7-2.6-10.8-2.6c0.4-2.9,0.8-5.7,1.3-8.6c0.4-0.1,0.8-0.1,1.2-0.1c0.5,2.2-1.4,5.5,1.3,6.6c4.3,1.7,8.4-2.4,8.4-7.8
		c0,0,0.1,0,0.1,0c0.9,0,1.8,0,2.7,0C301.9,130.3,301.8,125.3,304.6,123.7z"/>
	<path class="st13" d="M255.8,134.5c0-3.1,0-6.3,0.1-9.4c0.4-0.8,0.7-1.7,1.1-2.5c0.4-0.6,0.8-1.3,1.3-1.9c1.6-2.1,3.2-4.2,4.8-6.4
		c2.4-0.4,3.4-3.4,6.1-3.3c-0.1,1.3-0.1,2.7-0.2,4c0,4.9-0.1,9.8-0.1,14.7c-6.3,1-2.7-3.6-3.2-5.8c-0.4-1.5,2.1-4-0.6-4.4
		c-2.8-0.5-3.6,2.1-3.3,4.6c0.3,3.6,0.8,7.2,1.2,10.8c-0.7,1-1.8,1.1-2.9,1.2c-0.7-0.3-1.4-0.7-2.2-1
		C257.1,134.8,256.5,134.7,255.8,134.5z"/>
	<path class="st6" d="M283.7,131.1c-0.4,2.9-0.8,5.7-1.3,8.6c-1.8,3.4-4.6,0-4.7-0.2c-1-2.5-4.2-2.4-5.3-4.6
		C275,130.1,280.3,133.2,283.7,131.1z"/>
	<path class="st6" d="M262.8,134.8c-0.4-3.6-0.9-7.2-1.2-10.8c-0.2-2.5,0.6-5.1,3.3-4.6c2.7,0.5,0.2,3,0.6,4.4
		c0.5,2.1-3.1,6.8,3.2,5.8c0,0.9,0,1.9,0,2.8C266.2,131.7,265.1,134.9,262.8,134.8z"/>
	<path class="st6" d="M294.6,129.7c0,5.5-4.1,9.6-8.4,7.8c-2.6-1.1-0.8-4.3-1.3-6.6C288.9,136.1,291.3,129.5,294.6,129.7z"/>
	<path class="st6" d="M297.3,129.7c-0.9,0-1.8,0-2.7,0c0.7-0.9,1.3-1.7,2-2.6C296.9,128,297.1,128.9,297.3,129.7z"/>
	<path class="st10" d="M123.9,197.4c0,1.6,0,3.3,0,4.9c-1.2,0-2.3,0-3.4-0.1c-2.1-4.1-5.6,0.4-8.1-1.4c0.6-0.5,1.2-1.1,1.9-1.6
		c0.8,0.4,1.1,0,1.3-0.7c0,0,0,0,0,0c1.4,0.1,2.7,0.2,3.9-0.7C121,198.9,122.4,197.1,123.9,197.4z"/>
	<path class="st11" d="M232.1,422.1c-3,0.1-4.9-1.4-6.7-4.4c5.5-0.6,7.6-5.6,11.6-8c-0.1,0.8,0.1,1.7-0.2,2.4
		C235.3,415.4,232,417.9,232.1,422.1z"/>
	<path class="st13" d="M262.6,275c3.1,3.9,8.1,6.3,8.9,11.9c0.2,1.3,1.2,1.4,2.2,1.5c1.2,2.2,1.1,4.7,1,7.1c0.4,7.8-5.1,12.7-9,18.4
		c-1,0.1-2,0.2-3,0.4c-0.8,0-1.5,0-2.3,0c0.6-1.3,2-1.3,3-1.8c1.5-0.8,1.9-2,1.2-3.5c-0.7-1.4-1.6-2.4-3.3-1.8
		c-1.9,0.7-3.9,1.1-5.9,0.7c0.3-3.2,4.4-4.5,3.9-8.1c7.2-0.1,5.7-5.9,6.7-10.1c0.9-4.2,1.8-8.3-4.5-9c-1.6-0.2-2.2-1.7-2.5-3.1
		c-0.3-1-0.7-2-1-3c0.7,0.1,1.5,0.1,2.2,0.2C261,274.7,261.8,274.9,262.6,275z"/>
	<path class="st15" d="M288.6,314c-0.8,0.4-1.6,0.8-2.5,1.2c-3.6-0.7-7.5,1.2-10.9-1.2C277.8,309.1,283.5,309,288.6,314z"/>
	<path class="st9" d="M262.7,314.2c1-0.1,2-0.2,3-0.4c2.7,0,5.5,0.1,8.2,0.1c0.1,0.8,0.1,1.7,0.2,2.5c-2.7,3-5.2,7.7-8.5,0.4
		C265.1,315.9,263.1,315.8,262.7,314.2z"/>
	<path class="st5" d="M257.8,134.9c0.7,0.3,1.4,0.7,2.2,1c3.5,4.7,7.5,8.7,13.7,9.7c1.3,0.2,2.6,0.9,3.9,1.3
		c0.5,1.2,0.9,2.4,1.4,3.6c-3.3,0-6.6,0-9.9,0.1c-1.4-3.9-4.7-7.2-8.2-6.3c-3.8,0.9-7.8,3.6-10.2,7.4c-1.6,0.2-3.3,0.3-4.9,0.5
		c0.1-2.1-7.7-0.6-2.4-5.1c1.2-0.8,2.5-1.6,3.7-2.4C252.5,143.6,255,139.1,257.8,134.9z"/>
	<path class="st12" d="M250.5,151.7c2.4-3.8,6.4-6.5,10.2-7.4c3.5-0.8,6.8,2.4,8.2,6.3c-2.4,0.2-3.8,1.7-5,3.6
		c-1.2,0.5-2.4,0.9-3.6,1.4c-3.2,1.2-5.9,6.7-10,1.2c0.4-1.2,0.9-2.4,1.3-3.6c-0.4-0.4-0.8-0.8-1.2-1.2L250.5,151.7z"/>
	<path class="st10" d="M250.5,152c0.4,0.4,0.8,0.8,1.2,1.2C251.3,152.8,250.9,152.4,250.5,152z"/>
	<path class="st5" d="M262.7,314.2c0.3,1.6,2.4,1.7,2.8,2.7c3.3,7.3,5.8,2.6,8.5-0.4c2,1,2.2,2.8,2.3,4.8l-0.1,0.1
		c-6.6,2-7.6,5.4-3.1,9.8c2,2,4.1,3.8,6.8,4.9c0.4,0.8,0.9,1.6,1.3,2.4c-5.6,4.5-9.6,4.1-13.2-1.3c-1-1.5-2.6-2.5-4-3.7
		c0-2.7-1.3-4.9-2.6-7.2c-0.2-4.7-2.4-7.1-7.4-6.3c-6.9,1.2-14.4-2.2-20.7,3.7c-1.1,1.1-0.9-1.5-1.2-2.4c0,0,0-0.1,0-0.1
		c0.4-0.8,0.8-1.6,1.2-2.4c1.5-1.8,3.1-3.6,3.6-6c5.7,0.8,11.4,1.7,17.1,2.4c2.2,0.3,4.5,0.4,6.3-1.2
		C261.2,314.2,262,314.2,262.7,314.2z"/>
	<path class="st15" d="M68.9,164.2c-0.4,0-0.8,0-1.2,0c-1.2-0.8-2.5-1.6-3.7-2.5C66,161.6,67.9,162.1,68.9,164.2z"/>
	<path class="st7" d="M286.2,423.1c2.1,0,3.9,0.5,6,2.6c-3.3,0.7-4.8-0.6-6.1-2.4C286.1,423.3,286.2,423.1,286.2,423.1z"/>
	<path class="st15" d="M293.4,419.3c0.9,0.4,2.3-0.1,2.6,1.5C294.3,421.6,293.9,420.4,293.4,419.3z"/>
	<path class="st11" d="M97.1,369.2c-0.1,0.1-0.2,0.3-0.3,0.4C96.9,369.5,97,369.3,97.1,369.2C97.1,369.2,97.1,369.2,97.1,369.2z"/>
	<path class="st0" d="M141.3,379c0.8,0.4,1.7,0.8,2.5,1.2C142.7,380.2,141.9,379.9,141.3,379z"/>
	<path class="st0" d="M128.9,381.5c0.5-0.5,0.9-0.9,1.4-1.4C129.8,380.5,129.3,381,128.9,381.5z"/>
	<path class="st5" d="M262.6,275c-0.8-0.2-1.6-0.4-2.5-0.5c0.4-4-0.6-8.3,1.5-12.1c4-1.4,1.7-4.9,2.4-7.3c1.2,0,2.5,0,3.7,0
		c0.4,3.3-1.4,6.8,1.3,9.8c0,0.8-0.1,1.6-0.1,2.4C266.4,269.5,265.6,273.2,262.6,275z"/>
	<path class="st15" d="M269.1,264.9c-2.6-3-0.8-6.5-1.3-9.8c0.8,0,1.6,0,2.4,0C274.8,258.9,273.7,262.1,269.1,264.9z"/>
	<path class="st15" d="M246.9,144.7c-1.2,0.8-2.5,1.6-3.7,2.4c-1.9-2.2-0.5-7.7-6.2-6.2c-2.6,0-5.2-0.1-7.8,0.1
		c-3.9,0.3-5-1.7-4.3-5.1c6-0.9,11,3.5,16.9,2.8C242.1,141.8,247.8,140.5,246.9,144.7z"/>
	<path class="st15" d="M97.1,357c0.3,0,0.6,0,0.9,0.1c0,0.2,0,0.4-0.1,0.5C97.6,357.3,97.4,357.1,97.1,357
		C97.1,356.9,97.1,357,97.1,357z"/>
	<path class="st15" d="M156,189.9c0.4,0,0.8,0,1.2,0.1c-1.3,1.5-2.9,2.2-4.8,2.4c-7.2,0.5-13.2,4.7-20,6.3c-2.6,0.4-4.1-1.6-6.1-2.6
		c0.5-0.5,1-1,1.4-1.5c0.7,0,1.4,0,2,0c2.8,0.6,4.3-2,7.9-2.8c-2.7-0.4-3.7-1.3-3.8-2.9c0.4,0,0.8,0,1.3,0c4.3-1.6,8.1,1.8,12.3,1.1
		C150.3,189.9,153.2,189.9,156,189.9z"/>
	<path class="st6" d="M257.9,274.3c0.3,1,0.7,2,1,3c-2.9-1-5.4,3.2-6,2.5c-4.2-4.8-8.3,0.3-12.3-0.3c0.1-1.9,1.6-3,2.4-4.5
		c2.1-0.5,4.2-1,6.3-1.4C252.2,273.9,255.2,272.6,257.9,274.3z"/>
	<path class="st5" d="M71.4,181.6c1.6,0,3.1,0,4.7,0c1.7,3.3,3.9,2.8,6.3,0.9c0.4-0.1,0.7-0.1,1.1-0.2c1.8,2,1.9,5.2,4.6,6.6
		c0.3,0.7,0.8,1.2,1.7,1c0.9,0.8,1.8,1.6,2.7,2.3c1.4,4.3,4.7,6.8,8.4,8.9c-2,1-3.8,2.7-5.9,2.9c-6.6,0.6-9.8,5.1-12.9,10.1
		c-0.8,0-1.5,0.1-2.3,0.1c-1.9-1-3.8-2.1-2.5-4.8c0.1-0.3,0.2-0.7,0.2-1c3.9-1.3,7.4-3.2,8.6-7.6c1.2-0.8,2.5-1.7,1.6-3.3
		c-0.9-1.6-2.6-2-4.2-1.4c-3.7,1.4-7.8,1.8-11,4.4c-0.4,0-0.7,0.1-1.1,0.2c-0.1-2.4,1.1-5.1-1.2-7.2c6-2.6,2-5-0.1-7.5
		C70.6,184.7,71,183.1,71.4,181.6z"/>
	<path class="st12" d="M137.4,75.7c0.8,3.4,2,6.5,6.3,6.3c-1.9,4.3-4.2,7.2-8.6,2.5c-0.8,0-1.6,0-2.4,0
		C132.5,80.6,132.5,76.9,137.4,75.7z"/>
	<path class="st10" d="M41.8,278.5c-1.3-5.1-0.9-10.7-4.8-14.9c5.5,1.3,11.6,0.6,16.1,5.2c-3.4,4-3.2,8.6-2.6,13.3
		c-2.1-0.3-3.6,0.9-5,2.3C44.3,282.4,43.1,280.5,41.8,278.5z"/>
	<path class="st15" d="M133.9,23.1c0.3,0.3,0.5,0.6,0.8,0.8c-0.2,0.1-0.4,0.2-0.6,0.3C134.1,23.8,134,23.4,133.9,23.1
		C133.9,23,133.9,23.1,133.9,23.1z"/>
	<path class="st15" d="M82.3,214.2c3-5,6.2-9.5,12.9-10.1c2-0.2,3.9-1.9,5.9-2.9c1.1,0.1,2.3,0.3,3.4,0.4c0,0.6-0.1,1.3-0.1,1.9
		c-2.1-0.2-4.6-0.4-5.6,1.6c-3,6.1-10.4,5.5-14.5,10C83.7,215.8,82.7,215,82.3,214.2z"/>
	<path class="st15" d="M77.5,209.6c-1.3,2.7,0.6,3.7,2.5,4.8c-3.8,0.1-7.7,2.2-11.1-1.1C71.5,211.7,74.4,210.3,77.5,209.6z"/>
	<path class="st3" d="M174.4,91.8c3.2,3.5,4.7,7.4,3.1,12.5c-3.7-1-6-5.4-10.3-5.1c-0.8-2.8,1.1-5.2,1.6-7.7
		C169.8,86.5,172.5,91.6,174.4,91.8z"/>
	<path class="st6" d="M259.3,299.5c0.6,3.6-3.6,5-3.9,8.1c-3.3,0.4-6.5,0.8-9.8,1.2c-2.3-1.5-5.3-1.5-7.3-3.6
		c-0.4-0.4-0.8-0.8-1.3-1.3c-0.4-0.8-0.8-1.6-1.2-2.5c2.4,0.7,4.7,1.1,7,0c2.6-1.3,5.1-1.4,7.3,0.9
		C251.7,296.9,256.1,300.1,259.3,299.5z"/>
	<path class="st13" d="M238.3,305.3c2,2.1,5,2.1,7.3,3.6c-0.3,2.5-2,2.9-3.9,2.2C239.2,310.1,238,308.1,238.3,305.3z"/>
	<path class="st15" d="M72.6,200.8c3.2-2.7,7.3-3.1,11-4.4c1.6-0.6,3.3-0.2,4.2,1.4c0.9,1.6-0.4,2.6-1.6,3.3
		c-4.3-0.3-7.1,2.4-10,4.8C72.2,206.2,72.5,203.4,72.6,200.8z"/>
	<path class="st10" d="M76.2,205.9c2.9-2.4,5.8-5.1,10-4.8c-1.2,4.4-4.7,6.2-8.6,7.6C77.2,207.7,76.7,206.8,76.2,205.9z"/>
	<path class="st15" d="M119.2,357c0-0.4,0-0.9,0-1.3C120.5,356.1,119.9,356.6,119.2,357z"/>
	<path class="st15" d="M7.5,272.2c0.1,0.1,0.3,0.2,0.4,0.2C7.8,272.4,7.6,272.3,7.5,272.2C7.5,272.2,7.5,272.2,7.5,272.2z"/>
	<path class="st9" d="M259.3,299.5c-3.2,0.5-7.6-2.6-9,3c-2.2-2.4-4.7-2.2-7.3-0.9c-2.4,1.2-4.7,0.7-7,0c-4.6-9-2.8-17.6,4.8-22.1
		c4,0.7,8.1-4.4,12.3,0.3c0.6,0.7,3.1-3.5,6-2.5c0.3,1.4,0.9,3,2.5,3.1c6.3,0.7,5.4,4.8,4.5,9C265,293.6,266.5,299.5,259.3,299.5z"
		/>
	<path class="st12" d="M263,114.3c-1.6,2.1-3.2,4.2-4.8,6.4c-1.2-2.1-1.7-4.4-1.6-6.8c0-2,0-4.1,0-6.1c2.2,0.9,3.4,3.6,6.1,3.7
		C262.9,112.4,262.9,113.4,263,114.3z"/>
	<path class="st12" d="M246.9,144.7c0.9-4.2-4.8-2.8-5-6.1c3.3-1.3,6.6-2.6,10-3.8c1.3-0.1,2.6-0.1,3.9-0.2c0.7,0.1,1.3,0.3,2,0.4
		C255,139.1,252.5,143.6,246.9,144.7z"/>
	<path class="st8" d="M104.4,201.7c-1.1-0.1-2.3-0.3-3.4-0.4c-3.7-2.1-7.1-4.6-8.4-8.9c2.9,1.7,5.2-1.2,6.1-2.3
		c1.4-1.7-1.3-3.1-3.1-4.1c-0.6-0.3-0.7-1.4-1-2.1c2.1,0,4.1,0.1,6.2,0.1c0.4,2.1,0.4,6.3,2.7,5.1c4-2.1,4.3-1,4.8,2.4
		c0.4,2.9,2.9,2.1,4.8,2.2c0.8,1.7,1.6,3.3,2.4,5c0,0,0,0,0,0c-0.4,0.2-0.9,0.5-1.3,0.7c-0.6,0.5-1.2,1.1-1.9,1.6
		C109.7,201.1,107.1,201.4,104.4,201.7z"/>
	<path class="st8" d="M127.8,194.5c-0.5,0.5-1,1-1.4,1.5c-0.8,0.5-1.6,0.9-2.4,1.4c-1.6-0.4-2.9,1.4-4.5,0.5
		c-1.1-4.1,0.3-6.5,4.7-6.8C126.2,191.3,127.5,192.3,127.8,194.5z"/>
	<path class="st2" d="M234.5,268.6c-0.4,0.4-0.8,0.8-1.2,1.2C233.8,269.4,234.2,269,234.5,268.6z"/>
	<path class="st13" d="M127.8,194.5c-0.2-2.2-1.6-3.2-3.7-3.4c-0.2-1.6,2-3.2,0-4.8c0-0.5,0.1-0.9,0.1-1.4c0-0.3,0-0.6,0-0.9
		c0.1-0.5,0.2-1,0.3-1.5c1.6-3.7,1-7.5,1-11.3c7.8,3.8,6.4,10.7,6,17.4c-1.8,1.6-1.2,4-1.7,6C129.1,194.6,128.5,194.5,127.8,194.5z"
		/>
	<path class="st12" d="M125.2,160.6c6,1.4,10.7-2.5,16.1-3.7c-2.7,6.8-9.7,8.4-14.8,12.2c-0.4-2.1-0.8-4.1-1.3-6.2
		C125.2,162.1,125.2,161.3,125.2,160.6z"/>
	<path class="st6" d="M125.4,171.2c0.1,3.8,0.7,7.7-1,11.3c-0.6-0.5-1.3-1-1.9-1.4c1.8-7.4-2.8-11.2-8.2-14.4
		c0.4-1.1,0.9-2.2,1.3-3.4c2.4,0.4,4.1,2.1,6,3.5c0.6,2,2.2,2.2,3.9,2.4C125.4,169.9,125.4,170.5,125.4,171.2z"/>
	<path class="st5" d="M129.8,194.6c0.4-2-0.2-4.4,1.7-6c0.8,0.1,1.6,0.1,2.4,0.2c0.1,1.6,1.1,2.5,3.8,2.9
		C134.1,192.6,132.6,195.2,129.8,194.6z"/>
	<path class="st3" d="M161,165.5c0,2.1-1.8,3.2-2.5,4.9c-1.7-0.1-4.1,0.2-4.1-2.2c0-2.1,2.5-1.2,3.8-1.9
		C159,165.8,160,165.7,161,165.5z"/>
	<path class="st15" d="M125.5,169.2c-1.7-0.1-3.3-0.4-3.9-2.4c0.9-1.6,1.4-3.6,3.7-3.9c0.4,2.1,0.8,4.1,1.3,6.2
		C126.2,169.1,125.8,169.2,125.5,169.2z"/>
	<path class="st3" d="M162.2,164.2c-0.4,0.4-0.9,0.8-1.3,1.2C161.4,165.1,161.8,164.6,162.2,164.2z"/>
	<path class="st13" d="M94.6,183.8c0.3,0.7,0.5,1.7,1,2.1c1.8,1,4.5,2.4,3.1,4.1c-0.9,1.1-3.2,4-6.1,2.3c-0.9-0.8-1.8-1.6-2.7-2.3
		c-0.2-0.8,0.3-2-0.8-2.4c-0.1,0-0.6,0.9-0.9,1.4c-2.7-1.4-2.8-4.6-4.6-6.6c0.4-1.6-0.6-3.5,1.3-4.7c2.1,1.5,2,5.6,5.9,5.1
		C91.8,183.9,93.2,183.7,94.6,183.8z"/>
	<path class="st6" d="M90.7,182.7c-3.9,0.5-3.8-3.6-5.9-5.1c-0.2-6.2,4.5-9,8.6-12.2c0.3,3.1,1.7,6-2.7,8.4
		C88.1,175.1,89.7,179.6,90.7,182.7z"/>
	<path class="st12" d="M82.4,182.5c-2.4,2-4.6,2.5-6.3-0.9C78.3,181.5,80.5,180.8,82.4,182.5z"/>
	<path class="st3" d="M66.4,172.8c0.1-0.1,0.2-0.3,0.2-0.4C66.6,172.5,66.5,172.7,66.4,172.8C66.4,172.8,66.4,172.8,66.4,172.8z"/>
	<path class="st14" d="M114.3,166.6c5.5,3.3,10,7.1,8.2,14.4c-5.6,3.8-7.5,3.3-7.7-3.4C114.7,174,111.2,170.4,114.3,166.6z"/>
	<path class="st6" d="M124.1,186.3c2,1.6-0.2,3.2,0,4.8c-4.4,0.3-5.8,2.7-4.7,6.8c-1.2,0.9-2.5,0.8-3.9,0.7c-0.8-1.7-1.6-3.3-2.4-5
		c-0.4-2.9-0.8-5.7-1.2-8.6C115.7,187.6,119.7,189.3,124.1,186.3z"/>
	<path class="st13" d="M111.9,185c0.4,2.9,0.8,5.7,1.2,8.6c-1.9-0.1-4.4,0.8-4.8-2.2c-0.5-3.4-0.8-4.6-4.8-2.4
		c-2.3,1.2-2.3-3-2.7-5.1c3.3,0,6.6,0,9.9,0C111,184.2,111.4,184.6,111.9,185L111.9,185z"/>
	<path class="st14" d="M102.8,168c0.1-0.5,0.3-1.1,0.4-1.6c6.4,0.9,1.8,4.8,1.7,7.5C104.2,171.9,103.5,169.9,102.8,168z"/>
	<path class="st6" d="M111.9,185c-0.4-0.4-0.8-0.8-1.3-1.2C111,184.2,111.4,184.6,111.9,185z"/>
	<path class="st6" d="M124.2,184c0,0.3,0,0.6,0,0.9c-0.1-0.2-0.3-0.5-0.4-0.7C123.9,184.2,124.1,184.1,124.2,184z"/>
	<path class="st12" d="M279.9,282.7c-1.2,0.1-2-0.2-1.7-1.2c0.2-1,1.1-1.6,2.1-1.7c0.8,0,1.8,0.3,1.4,1.2
		C281.4,281.8,280.4,282.3,279.9,282.7z"/>
	<path class="st12" d="M273.8,288.4c-1-0.1-2-0.2-2.2-1.5c0.8-0.2,1.7-0.4,2.5-0.6C274,287,273.9,287.7,273.8,288.4z"/>
	<path class="st3" d="M276.3,274.7c-0.1,0.2-0.2,0.3-0.3,0.5C276.2,275,276.2,274.8,276.3,274.7
		C276.3,274.7,276.3,274.7,276.3,274.7z"/>
	<path class="st12" d="M233.4,318.9c-0.4,0.8-0.8,1.6-1.2,2.4C232.2,320.3,232.5,319.4,233.4,318.9z"/>
	<path class="st2" d="M156,189.9c-2.9,0-5.8,0-8.6,0c-0.3-3.1,7.3-1.7,3.7-6.6c0.7-0.2,1.4-0.6,2.1-0.6c1.2,0,2.6,0.4,2.1,2
		C154.8,186.6,155.9,188.2,156,189.9z"/>
	<path class="st5" d="M276.4,321.3c0.1,0.1,0.3,0.2,0.4,0.3C276.6,321.5,276.5,321.4,276.4,321.3
		C276.3,321.4,276.4,321.3,276.4,321.3z"/>
	<path class="st3" d="M276.3,161.8c0.1-0.4,0.1-0.8,0.2-1.2c0.2,0.1,0.4,0.2,0.6,0.3C276.8,161.2,276.6,161.5,276.3,161.8
		C276.3,161.8,276.3,161.8,276.3,161.8z"/>
	<path class="st6" d="M114.2,199.3c0.4-0.2,0.9-0.5,1.3-0.7C115.3,199.3,115,199.6,114.2,199.3z"/>
	<path class="st8" d="M88.1,188.9c0.3-0.5,0.8-1.4,0.9-1.4c1.2,0.5,0.6,1.6,0.8,2.4C88.9,190.1,88.5,189.6,88.1,188.9z"/>
</g>
</svg>
