<svg xmlns="http://www.w3.org/2000/svg" viewBox="0 0 1238.49 659.11"><title>Asset 2</title><g id="ffcc409a-0e1f-48e7-8030-98cbb78bcd55" data-name="Layer 2"><g id="af1947d3-e6da-4202-936d-78c58f014ff1" data-name="Layer 1"><path d="M564.63,86.09c18.2.13,34.72,5.49,49,16.8,11.08,8.79,19.35,20,25.7,32.6,11,21.87,16.31,45.28,18.3,69.46,1.2,14.49,1.74,29,2.22,43.58.6,18,.82,36,1.21,54,.69,32.09,1.26,64.17,2.14,96.25.42,15.7,1.29,31.4,2.19,47.08.88,15.27,1.68,30.55,3.21,45.76,1.16,11.52,3.12,23,5.26,34.37a221.56,221.56,0,0,0,14.61,47.25c7.7,17.81,18.87,33.08,34.58,44.73,12.65,9.38,26.76,14.81,42.72,13.78,15.1-1,28.41-6.78,40.21-16.18,13.76-11,23.85-24.9,32.34-40.13,11.27-20.22,17.67-42.06,22.23-64.59a54.23,54.23,0,0,1,5-13.75c2.84-5.53,6.5-7,11.76-6.1,4.51.81,8,5.11,9.35,10.34,1.92,7.56.07,14.73-1.65,21.9-2.29,9.55-4.43,19.19-7.51,28.49a234.23,234.23,0,0,1-10.67,25.85,207.68,207.68,0,0,1-12.28,22.82c-13.27,21-30.18,38.23-52.87,49-13,6.15-26.57,10.21-41.12,9.64a87.9,87.9,0,0,1-30.89-6.35,107.28,107.28,0,0,1-30.75-19.1c-24.06-21.66-39-48.85-48-79.64a312.08,312.08,0,0,1-11.24-62.34c-1.58-19.09-2.57-38.23-3.38-57.37-.95-22.61-1.55-45.23-2.07-67.85-.37-16.42-.35-32.86-.54-49.28,0-4.91-.18-9.81-.36-14.71-.12-3.1-1.66-4.16-4.61-3.1-11.44,4.07-22.84,8.24-34.27,12.33q-22,7.89-44.1,15.7-28.46,10-56.92,20Q471,355.25,448.6,362.93a4.36,4.36,0,0,0-3.37,4c-.94,9.69-2.07,19.37-2.77,29.08-.76,10.56-.92,21.16-1.74,31.71A100.81,100.81,0,0,1,438,443.82,11,11,0,0,1,427.29,452c-6.66-.05-9.83-2-11.55-8-1.92-6.71-3.14-13.53-2.46-20.65.65-6.72.54-13.51,1-20.25.78-10.52,1.73-21,2.72-31.53,1.05-11,2.14-22.06,3.4-33.07.67-5.82,1.71-11.59,2.63-17.38,1.36-8.67,2.64-17.36,4.2-26,1.15-6.38,2.39-12.77,4.11-19,6.51-23.74,12.81-47.56,20-71.08,3.92-12.78,9.17-25.19,14.5-37.47a192.05,192.05,0,0,1,23.46-40.64c11.45-14.93,25.41-26.67,42.84-34A83.77,83.77,0,0,1,564.63,86.09Zm-.2,25c-7.1-.09-13.74,1.82-20.15,4.47-14.65,6-25.53,16.66-34.61,29.26-8.32,11.53-14.45,24.28-20,37.32-8.58,20.32-15.28,41.31-21.37,62.47a636.55,636.55,0,0,0-15.78,69.29c-1.07,6.29-2,12.62-2.66,19-.3,2.84.76,3.38,3.36,2.44,15.88-5.69,31.75-11.42,47.65-17.05q31.12-11,62.28-21.87,32.17-11.31,64.33-22.62c5.08-1.79,5.25-1.9,5.07-7.09-.63-18.31-1.12-36.64-2.09-54.94a187.69,187.69,0,0,0-9.38-49.88c-4.84-14.47-11.81-27.44-23-38C588.57,114.8,577.21,111.11,564.43,111Z"/><path d="M1200.69,255.79l-4.22,6.75c-9.56,15.34-22,27.86-38,36.17-27,14-54.63,14.63-82.57,2.79A96.52,96.52,0,0,1,1036,270.82c-4.34-5.71-7.56-12.28-11.18-18.52-3.36-5.79-6.92-11.51-9.81-17.54a167.76,167.76,0,0,1-15.72-54c-1.93-16.75-4-33.49-6.64-50.14-1.88-11.9-6.84-22.83-12.67-33.37C972,82.93,961.07,71.13,948.83,60.62a133.9,133.9,0,0,0-37-22.95,171.61,171.61,0,0,0-66.61-12.4,256.62,256.62,0,0,0-48.68,5.22A290.19,290.19,0,0,0,741,48.17a222.63,222.63,0,0,0-48.55,28.12c-7.14,5.47-13.9,11.44-20.81,17.21-3.78,3.17-7.91,5.07-13,3.91-8.91-2-11.56-9.13-6.39-16.63,5.33-7.74,12-14.17,19-20.42a187,187,0,0,1,45.32-29.79,361.52,361.52,0,0,1,36-14.63,319.59,319.59,0,0,1,35-9.9A219.76,219.76,0,0,1,831.17.47C839.09.3,847-.27,854.92.16c13.93.76,27.87,2.27,41.27,6.27A295.76,295.76,0,0,1,928.72,18a140.16,140.16,0,0,1,38.21,24.5c8.54,7.67,17,15.63,24.2,24.56,9.89,12.35,18.14,25.93,23.55,41a161.38,161.38,0,0,1,8.56,36.31c1.47,12.9,3,25.79,4.62,38.66a140.43,140.43,0,0,0,15.39,48.89c3.14,5.88,5.07,12.37,9.29,17.75,10.82,13.77,23.33,25.41,40.38,30.78a61.52,61.52,0,0,0,47.36-3.83c17.43-8.7,29.18-22.82,37.4-40.18,8.09-17.08,11.71-35.33,14.67-53.82,2-12.3,1.61-24.63,1.53-37-.09-14.33.2-28.66.32-43,.08-9.72.11-19.44.27-29.16a40.4,40.4,0,0,1,.75-8.09c2.41-10.84,14-12.2,21.18-6.89,7.56,5.61,10.07,13.63,9.94,22.63-.18,13.51-.25,27-.88,40.53-.79,16.74-2.41,33.44-3,50.19-.31,8.2.59,16.47,1.33,24.68,1,10.64,2.31,21.25,3.5,31.87,1.16,10.37,2.28,20.74,3.52,31.1,1.26,10.57,2.81,21.11,3.93,31.69,1,9.12,1.62,18.28,2.18,27.44.7,11.36,1.44,22.73,1.6,34.1.09,6.77-.91,13.54-1.39,20.31a135.77,135.77,0,0,1-7.62,36.18c-6.83,19.14-17.24,36.14-32.76,49.43-7.9,6.78-16.29,13.38-25.43,18.25a127.35,127.35,0,0,1-63.11,15.39,108.84,108.84,0,0,1-55.74-16.16,98.61,98.61,0,0,1-34.52-35.92,88.59,88.59,0,0,1-11.7-38.18c-.58-8.76.36-17.62,4.45-25.71,2.53-5,6.56-7.16,11.44-6.42,5.58.85,9.15,4.08,10,9.67,1,7.22,1.85,14.47,2.54,21.73,1.38,14.52,7.05,27.12,16.28,38.33a69.21,69.21,0,0,0,23.11,18,74.14,74.14,0,0,0,27.11,7.19,94.17,94.17,0,0,0,30.14-2.54,98.16,98.16,0,0,0,27.49-11.11,100.28,100.28,0,0,0,46.6-61.43A150.54,150.54,0,0,0,1210.4,345c-.63-17-2.21-34-3.66-51-.91-10.74-2.3-21.43-3.58-32.13a42.16,42.16,0,0,0-1.54-5.86Z"/><path d="M198.69,431.32a181.86,181.86,0,0,0,46.69-4.79,199.17,199.17,0,0,0,61.2-25.35,183.77,183.77,0,0,0,38.07-31.36,185.93,185.93,0,0,0,21.61-28.61,159.48,159.48,0,0,0,20.48-52.29,147.89,147.89,0,0,0,0-60.22,156.58,156.58,0,0,0-12.36-36.85,160.76,160.76,0,0,0-56.62-64.28A185.67,185.67,0,0,0,207.6,97.67a197.2,197.2,0,0,0-50.22,8.77,187.19,187.19,0,0,0-34.3,14.43c-10.19,5.69-20.27,11.5-29.14,19a315.92,315.92,0,0,0-23.4,22.16,152.15,152.15,0,0,0-14.33,17.83A116.37,116.37,0,0,0,45.6,197.68a288.39,288.39,0,0,0-12.08,29.58,137.1,137.1,0,0,0-7.05,46.08,157.18,157.18,0,0,0,5.68,40.57,170.44,170.44,0,0,0,13,32.21c4.4,8.49,10.16,16.33,15.69,24.19,4.32,6.14,9.33,11.77,13.81,17.8a9.73,9.73,0,0,1,.56,11.2c-2.25,4-5.9,5.5-10.27,5.49-4.6,0-8.16-2.6-11.46-5.33a134.75,134.75,0,0,1-39.12-53.83,203,203,0,0,1-10-30.34,172.94,172.94,0,0,1-1.78-68.37,195,195,0,0,1,15.9-50.24A190.31,190.31,0,0,1,43.54,157c17.21-21.15,37.37-38.93,61.34-52,11.29-6.16,22.84-12.1,34.82-16.68A186.14,186.14,0,0,1,187.83,76.6c10.82-1.06,21.69-2.1,32.54-2.18a166.21,166.21,0,0,1,26.53,2.19,269.55,269.55,0,0,1,32.29,6.67A195.85,195.85,0,0,1,338.4,111.8a186.73,186.73,0,0,1,32.54,28.93,174.28,174.28,0,0,1,28.9,44c4.56,10.17,8.79,20.41,11.41,31.25,3.16,13.07,5.4,26.33,5.07,39.78a283.82,283.82,0,0,1-2.58,33.74c-2.33,15.95-7.53,31.13-14.36,45.77a190.34,190.34,0,0,1-25.94,41.41,216.69,216.69,0,0,1-54.09,47,233.14,233.14,0,0,1-112.86,33.93c-15.63.52-31.25-.15-46.6-3.31a36.37,36.37,0,0,1-12.5-5.48c-6.49-4.33-5.09-13.63,2.51-17.71,2.43-1.3,3.15-2.47,2.74-5.32-1.67-11.36-3-22.78-4.35-34.19q-2.92-24.89-5.66-49.8c-2-18.72-4-37.46-6-56.18-1.94-17.79-4-35.58-5.92-53.38-1-9.74-1.81-19.51-2.78-29.25-.48-4.9-1.09-9.78-1.71-14.66a30.32,30.32,0,0,1,3.27-18c3.58-7,14.05-7.51,18-.78a37.67,37.67,0,0,1,4.84,13.38c2.56,18.53,4.63,37.12,6.75,55.7,1.65,14.44,3.05,28.9,4.65,43.34,2.1,18.93,4.28,37.86,6.42,56.79q1.45,12.94,2.91,25.9c1.85,16.2,3.76,32.38,5.52,48.59.46,4.24.5,8.54.64,12.81.14,4.48.61,5.14,5.06,5.26C189.05,431.42,193.87,431.32,198.69,431.32Z"/><path d="M766.54,387.2a52.29,52.29,0,0,0,5.61-.83q19.58-5,39.12-10.12c13.86-3.63,27.69-7.36,41.55-11s27.55-7,41.29-10.67c25.69-6.78,51.35-13.67,77-20.46,15.07-4,30.14-8,45.26-11.74a25.07,25.07,0,0,1,15.76,1.07c3.88,1.57,6.36,4.53,6.54,8.84.18,4.15-2.11,7.09-5.4,9.33-5.84,4-12.64,5.44-19.3,7.2q-18.39,4.86-36.79,9.63c-15.09,3.95-30.2,7.86-45.28,11.85-10.93,2.9-21.82,6-32.76,8.84-11.85,3.13-23.73,6.11-35.59,9.18-12.57,3.25-25.15,6.48-37.7,9.82-15.39,4.09-30.72,8.39-46.13,12.41-12,3.15-24.16,6.1-36.29,8.95a54.59,54.59,0,0,1-11.68,1.68,12.69,12.69,0,0,1-9.21-4.2c-3.18-3.23-4-7.7-1.56-11.5q15.91-25,31.94-50c5.64-8.82,11.25-17.67,16.91-26.47q14.85-23.1,29.76-46.16,19-29.56,38-59.17c11.61-18.18,23.08-36.45,34.68-54.64,6.25-9.8,12.66-19.51,18.95-29.29a19.79,19.79,0,0,0,1.3-3c-1.16-.29-2.38-1-3.47-.81-6.3.94-12.59,2-18.86,3.18-10.62,2-21.21,4.05-31.82,6.05q-16.21,3.06-32.43,6-21.47,3.92-43,7.76c-8.14,1.46-16.24,3.34-24.45,4.19a89.23,89.23,0,0,1-18.11-.38,9.13,9.13,0,0,1-8.15-7.64,8.56,8.56,0,0,1,5.43-9.4c5.73-2.47,11.6-5,17.67-6.25,16.58-3.49,33.28-6.38,49.94-9.41,8.24-1.49,16.53-2.68,24.76-4.18,11.74-2.14,23.44-4.45,35.17-6.66q26.54-5,53.08-9.93c7-1.31,14-2.47,21.15-.48,6.84,1.91,10.94,7.36,8.94,14.21a104.32,104.32,0,0,1-8,18.64c-3.23,6.2-7.21,12-10.9,18-5.08,8.19-10.13,16.38-15.3,24.5-7.31,11.48-14.72,22.89-22,34.34q-10.49,16.37-20.9,32.76c-5.89,9.28-11.71,18.61-17.61,27.88-8.92,14-17.92,28-26.82,42-5.48,8.65-10.78,17.42-16.28,26.06-6.85,10.76-13.84,21.42-20.72,32.15-1.42,2.23-2.64,4.59-3.95,6.89Z"/></g></g></svg>